<svg width="35" height="34" viewBox="0 0 35 34" fill="none" xmlns="http://www.w3.org/2000/svg">
<mask id="path-1-inside-1_211_2338" fill="white">
<path d="M20.315 16.7937C20.1474 16.7937 19.9918 16.7477 19.8536 16.6735V16.6755C19.8536 16.9392 19.7511 17.1868 19.5651 17.3723C19.3791 17.5583 19.1317 17.6608 18.8683 17.6608C18.6982 17.6608 18.5406 17.6135 18.4009 17.5375C18.3868 17.7787 18.2904 18.0042 18.1183 18.1764C17.9324 18.3623 17.6849 18.4648 17.4214 18.4648C16.8977 18.4648 16.4725 18.0532 16.4418 17.5373C16.2798 17.6249 16.0966 17.6708 15.9077 17.6586C15.3926 17.6249 14.9892 17.1798 14.9892 16.6452V12.2135L14.4845 13.0878C14.2923 13.4221 13.9326 13.6298 13.5452 13.6298C13.3564 13.6298 13.17 13.5802 13.0048 13.4856C12.7992 13.3664 12.6521 13.175 12.5909 12.946C12.5294 12.717 12.5612 12.4774 12.6801 12.272C12.6803 12.272 14.3312 9.41313 14.4319 9.23752C14.4439 9.21111 14.478 9.13453 14.507 9.06926C14.5347 9.00694 14.5585 8.94299 14.5813 8.8787C15.0792 7.47314 16.3119 6.60004 17.7987 6.60004C19.7294 6.60004 21.3001 8.30325 21.3001 10.3968L21.3003 15.8083C21.3003 16.0717 21.1979 16.3191 21.0121 16.5053C20.8262 16.6913 20.5787 16.7938 20.315 16.7938L20.315 16.7937ZM17.7987 7.12358C16.5212 7.12358 15.503 7.84517 15.0748 9.05379C15.0474 9.13054 15.0189 9.20729 14.9856 9.28207C14.889 9.49871 14.889 9.49871 14.8618 9.52986L14.8582 9.52675C14.7234 9.7811 14.3229 10.4746 13.1335 12.534C13.0846 12.6185 13.0716 12.7166 13.0966 12.8104C13.1218 12.9042 13.1823 12.9832 13.2661 13.0316C13.5262 13.181 13.8824 13.0846 14.0307 12.8263L15.0243 11.106C15.0837 11.0035 15.2037 10.9531 15.3188 10.9843C15.4333 11.015 15.5128 11.1188 15.5128 11.2372V16.6453C15.5128 16.9005 15.7054 17.1207 15.942 17.1363C16.0785 17.1435 16.2057 17.0978 16.3013 17.0023C16.3882 16.9154 16.4361 16.7996 16.4361 16.6758V13.1388C16.4361 12.9942 16.5534 12.8769 16.698 12.8769C16.8427 12.8769 16.9599 12.994 16.9599 13.1388L16.9597 17.4798C16.9597 17.7343 17.1669 17.9414 17.4214 17.9414C17.545 17.9414 17.6611 17.8935 17.7482 17.8066C17.8351 17.7195 17.883 17.6034 17.883 17.4798V13.1388C17.883 12.9942 18.0001 12.8769 18.1449 12.8769C18.2896 12.8769 18.4068 12.994 18.4068 13.1388L18.4067 16.6351V16.6758C18.4067 16.9301 18.6138 17.1373 18.8685 17.1373C18.9919 17.1373 19.1077 17.0892 19.1953 17.002C19.2822 16.9152 19.3301 16.7994 19.3301 16.6756V13.1386C19.3301 12.994 19.4472 12.8767 19.592 12.8767C19.7366 12.8767 19.8539 12.9938 19.8539 13.1386L19.8536 15.8084C19.8536 16.0631 20.0607 16.2702 20.315 16.2702C20.4388 16.2702 20.5546 16.2222 20.6415 16.1354C20.7288 16.0482 20.7765 15.9321 20.7765 15.8084L20.7767 10.3969C20.7767 8.59221 19.4408 7.12364 17.7987 7.12364L17.7987 7.12358Z"/>
</mask>
<path d="M20.315 16.7937C20.1474 16.7937 19.9918 16.7477 19.8536 16.6735V16.6755C19.8536 16.9392 19.7511 17.1868 19.5651 17.3723C19.3791 17.5583 19.1317 17.6608 18.8683 17.6608C18.6982 17.6608 18.5406 17.6135 18.4009 17.5375C18.3868 17.7787 18.2904 18.0042 18.1183 18.1764C17.9324 18.3623 17.6849 18.4648 17.4214 18.4648C16.8977 18.4648 16.4725 18.0532 16.4418 17.5373C16.2798 17.6249 16.0966 17.6708 15.9077 17.6586C15.3926 17.6249 14.9892 17.1798 14.9892 16.6452V12.2135L14.4845 13.0878C14.2923 13.4221 13.9326 13.6298 13.5452 13.6298C13.3564 13.6298 13.17 13.5802 13.0048 13.4856C12.7992 13.3664 12.6521 13.175 12.5909 12.946C12.5294 12.717 12.5612 12.4774 12.6801 12.272C12.6803 12.272 14.3312 9.41313 14.4319 9.23752C14.4439 9.21111 14.478 9.13453 14.507 9.06926C14.5347 9.00694 14.5585 8.94299 14.5813 8.8787C15.0792 7.47314 16.3119 6.60004 17.7987 6.60004C19.7294 6.60004 21.3001 8.30325 21.3001 10.3968L21.3003 15.8083C21.3003 16.0717 21.1979 16.3191 21.0121 16.5053C20.8262 16.6913 20.5787 16.7938 20.315 16.7938L20.315 16.7937ZM17.7987 7.12358C16.5212 7.12358 15.503 7.84517 15.0748 9.05379C15.0474 9.13054 15.0189 9.20729 14.9856 9.28207C14.889 9.49871 14.889 9.49871 14.8618 9.52986L14.8582 9.52675C14.7234 9.7811 14.3229 10.4746 13.1335 12.534C13.0846 12.6185 13.0716 12.7166 13.0966 12.8104C13.1218 12.9042 13.1823 12.9832 13.2661 13.0316C13.5262 13.181 13.8824 13.0846 14.0307 12.8263L15.0243 11.106C15.0837 11.0035 15.2037 10.9531 15.3188 10.9843C15.4333 11.015 15.5128 11.1188 15.5128 11.2372V16.6453C15.5128 16.9005 15.7054 17.1207 15.942 17.1363C16.0785 17.1435 16.2057 17.0978 16.3013 17.0023C16.3882 16.9154 16.4361 16.7996 16.4361 16.6758V13.1388C16.4361 12.9942 16.5534 12.8769 16.698 12.8769C16.8427 12.8769 16.9599 12.994 16.9599 13.1388L16.9597 17.4798C16.9597 17.7343 17.1669 17.9414 17.4214 17.9414C17.545 17.9414 17.6611 17.8935 17.7482 17.8066C17.8351 17.7195 17.883 17.6034 17.883 17.4798V13.1388C17.883 12.9942 18.0001 12.8769 18.1449 12.8769C18.2896 12.8769 18.4068 12.994 18.4068 13.1388L18.4067 16.6351V16.6758C18.4067 16.9301 18.6138 17.1373 18.8685 17.1373C18.9919 17.1373 19.1077 17.0892 19.1953 17.002C19.2822 16.9152 19.3301 16.7994 19.3301 16.6756V13.1386C19.3301 12.994 19.4472 12.8767 19.592 12.8767C19.7366 12.8767 19.8539 12.9938 19.8539 13.1386L19.8536 15.8084C19.8536 16.0631 20.0607 16.2702 20.315 16.2702C20.4388 16.2702 20.5546 16.2222 20.6415 16.1354C20.7288 16.0482 20.7765 15.9321 20.7765 15.8084L20.7767 10.3969C20.7767 8.59221 19.4408 7.12364 17.7987 7.12364L17.7987 7.12358Z" fill="#4CAF4F"/>
<path d="M20.315 16.7937V15.8656H23.594L20.8015 17.5842L20.315 16.7937ZM19.8536 16.6735H18.9255V15.1228L20.2921 15.8556L19.8536 16.6735ZM19.5651 17.3723L18.9088 16.7161L18.9097 16.7152L19.5651 17.3723ZM18.4009 17.5375L17.4744 17.4833L17.5598 16.0226L18.8448 16.7224L18.4009 17.5375ZM18.1183 18.1764L18.775 18.8323L18.7746 18.8326L18.1183 18.1764ZM16.4418 17.5373L16.0006 16.7208L17.2819 16.0283L17.3683 17.4823L16.4418 17.5373ZM15.9077 17.6586L15.8482 18.5848L15.847 18.5847L15.9077 17.6586ZM14.9892 12.2135L14.1854 11.7496L15.9173 8.74915V12.2135H14.9892ZM14.4845 13.0878L13.6799 12.6253L13.6807 12.6238L14.4845 13.0878ZM13.0048 13.4856L12.5434 14.2909L12.5394 14.2885L13.0048 13.4856ZM12.5909 12.946L13.4873 12.7054L13.4876 12.7065L12.5909 12.946ZM12.6801 12.272L11.877 11.807L12.1451 11.3439H12.6801V12.272ZM14.4319 9.23752L15.2772 9.62078L15.259 9.66097L15.237 9.69924L14.4319 9.23752ZM14.507 9.06926L13.659 8.69214L13.659 8.69213L14.507 9.06926ZM14.5813 8.8787L15.4562 9.18858L15.4561 9.18883L14.5813 8.8787ZM21.3001 10.3968L20.372 10.3968V10.3968H21.3001ZM21.3003 15.8083L22.2283 15.8083V15.8083H21.3003ZM21.0121 16.5053L21.669 17.1609L21.6684 17.1616L21.0121 16.5053ZM20.315 16.7938V17.7218H17.036L19.8286 16.0033L20.315 16.7938ZM17.7987 7.12358V6.19549H19.0291L18.6911 7.37855L17.7987 7.12358ZM15.0748 9.05379L15.9496 9.36371L15.9489 9.36571L15.0748 9.05379ZM14.9856 9.28207L15.8335 9.65953L15.8332 9.66002L14.9856 9.28207ZM14.8618 9.52986L15.5607 10.1405L14.9535 10.8354L14.2552 10.2323L14.8618 9.52986ZM14.8582 9.52675L14.0381 9.09214L14.5834 8.06318L15.4648 8.82434L14.8582 9.52675ZM13.1335 12.534L13.9371 12.9982L13.9367 12.9989L13.1335 12.534ZM13.0966 12.8104L12.2004 13.0517L12.1996 13.0488L13.0966 12.8104ZM13.2661 13.0316L12.8039 13.8364L12.8021 13.8354L13.2661 13.0316ZM14.0307 12.8263L13.2257 12.3643L13.227 12.3621L14.0307 12.8263ZM15.0243 11.106L14.2206 10.6418L14.2212 10.6408L15.0243 11.106ZM15.3188 10.9843L15.0787 11.8808L15.0764 11.8802L15.3188 10.9843ZM15.942 17.1363L15.893 18.0632L15.8811 18.0624L15.942 17.1363ZM16.3013 17.0023L16.9576 17.6586L16.957 17.6591L16.3013 17.0023ZM16.9599 13.1388H17.888V13.1388L16.9599 13.1388ZM16.9597 17.4798H16.0317V17.4797L16.9597 17.4798ZM17.7482 17.8066L18.4051 18.4622L18.4038 18.4635L17.7482 17.8066ZM18.4068 13.1388H19.3349V13.1388L18.4068 13.1388ZM18.4067 16.6351H17.4786V16.6351L18.4067 16.6351ZM19.1953 17.002L19.8509 17.6588L19.8503 17.6594L19.1953 17.002ZM19.8539 13.1386H20.782V13.1387L19.8539 13.1386ZM19.8536 15.8084H18.9255V15.8083L19.8536 15.8084ZM20.6415 16.1354L21.2978 16.7917L21.2972 16.7923L20.6415 16.1354ZM20.7765 15.8084H19.8484V15.8084L20.7765 15.8084ZM20.7767 10.3969H21.7048V10.397L20.7767 10.3969ZM17.7987 7.12364V8.05173H16.5683L16.9063 6.86867L17.7987 7.12364ZM20.315 17.7218C19.9733 17.7218 19.6682 17.6272 19.415 17.4915L20.2921 15.8556C20.3041 15.862 20.3117 15.8645 20.3148 15.8653C20.3174 15.866 20.317 15.8656 20.315 15.8656V17.7218ZM20.7817 16.6735V16.6755H18.9255V16.6735H20.7817ZM20.7817 16.6755C20.7817 17.1846 20.5819 17.669 20.2205 18.0294L18.9097 16.7152C18.9163 16.7086 18.9196 16.7029 18.9216 16.6983C18.9235 16.6936 18.9255 16.6865 18.9255 16.6755H20.7817ZM20.2214 18.0286C19.8612 18.3887 19.3776 18.5889 18.8683 18.5889V16.7327C18.8789 16.7327 18.886 16.7308 18.8907 16.7288C18.8955 16.7268 18.9016 16.7233 18.9088 16.7161L20.2214 18.0286ZM18.8683 18.5889C18.5221 18.5889 18.2132 18.492 17.957 18.3525L18.8448 16.7224C18.8569 16.729 18.8645 16.7315 18.8676 16.7323C18.8702 16.733 18.8699 16.7327 18.8683 16.7327V18.5889ZM19.3274 17.5916C19.3007 18.0484 19.1154 18.4915 18.775 18.8323L17.4617 17.5205C17.4652 17.517 17.4672 17.514 17.4689 17.5101C17.4707 17.506 17.4736 17.4975 17.4744 17.4833L19.3274 17.5916ZM18.7746 18.8326C18.4144 19.1929 17.9308 19.3929 17.4214 19.3929V17.5368C17.4322 17.5368 17.4392 17.5348 17.444 17.5328C17.4487 17.5309 17.4548 17.5274 17.4621 17.5201L18.7746 18.8326ZM17.4214 19.3929C16.3967 19.3929 15.5746 18.5888 15.5154 17.5923L17.3683 17.4823C17.3692 17.498 17.3757 17.5119 17.3871 17.5228C17.3927 17.5281 17.3983 17.5315 17.4033 17.5335C17.4076 17.5353 17.4131 17.5368 17.4214 17.5368V19.3929ZM16.8831 18.3538C16.5833 18.5158 16.2279 18.6092 15.8482 18.5848L15.9672 16.7325C15.9672 16.7325 15.9692 16.7327 15.9741 16.7315C15.9793 16.7303 15.9884 16.7274 16.0006 16.7208L16.8831 18.3538ZM15.847 18.5847C14.8165 18.5172 14.0611 17.6408 14.0611 16.6452H15.9173C15.9173 16.6765 15.9287 16.7007 15.9429 16.7165C15.9569 16.7318 15.9663 16.7324 15.9684 16.7325L15.847 18.5847ZM14.0611 16.6452V12.2135H15.9173V16.6452H14.0611ZM15.793 12.6775L15.2883 13.5517L13.6807 12.6238L14.1854 11.7496L15.793 12.6775ZM15.2892 13.5503C14.9306 14.1742 14.263 14.5578 13.5452 14.5578V12.7017C13.6021 12.7017 13.6541 12.6701 13.6799 12.6253L15.2892 13.5503ZM13.5452 14.5578C13.1942 14.5578 12.8487 14.4658 12.5434 14.2909L13.4663 12.6803C13.4912 12.6946 13.5187 12.7017 13.5452 12.7017V14.5578ZM12.5394 14.2885C12.1227 14.047 11.8194 13.6538 11.6943 13.1856L13.4876 12.7065C13.4867 12.7033 13.4844 12.6977 13.4799 12.6919C13.4755 12.6861 13.4714 12.6833 13.4703 12.6827L12.5394 14.2885ZM11.6946 13.1867C11.569 12.7188 11.6347 12.2253 11.877 11.807L13.4833 12.7371C13.4846 12.7348 13.4869 12.7295 13.4879 12.722C13.4889 12.7145 13.4881 12.7085 13.4873 12.7054L11.6946 13.1867ZM12.6801 11.3439C12.2249 11.4633 11.8841 11.7949 11.8816 11.7991C11.8807 11.8006 11.8795 11.8027 11.8791 11.8034C11.8788 11.8038 11.8784 11.8045 11.8783 11.8047C11.8782 11.8048 11.878 11.8051 11.878 11.8052C11.8779 11.8054 11.8779 11.8054 11.8783 11.8048C11.8789 11.8037 11.8799 11.8018 11.8815 11.7992C11.8845 11.7939 11.8891 11.786 11.8952 11.7755C11.9072 11.7546 11.925 11.7239 11.9477 11.6846C11.993 11.6061 12.0579 11.4938 12.1361 11.3584C12.2924 11.0877 12.5019 10.7249 12.7146 10.3566C13.1406 9.6187 13.5774 8.86205 13.6268 8.77579L15.237 9.69924C15.1858 9.7886 14.7467 10.5492 14.3221 11.2847C14.1094 11.653 13.8998 12.0159 13.7435 12.2867C13.6653 12.4221 13.6004 12.5345 13.555 12.6131C13.5323 12.6523 13.5145 12.6832 13.5023 12.7042C13.4962 12.7148 13.4915 12.7229 13.4883 12.7285C13.4867 12.7312 13.4854 12.7335 13.4844 12.7352C13.484 12.7359 13.4834 12.7369 13.4829 12.7378C13.4827 12.7381 13.4821 12.7392 13.4814 12.7404C13.4809 12.7412 13.4796 12.7434 13.4788 12.7449C13.4762 12.7492 13.1354 13.0808 12.6801 13.2001V11.3439ZM13.5867 8.85426C13.5969 8.83173 13.6292 8.75908 13.659 8.69214L15.3551 9.44639C15.3268 9.50998 15.2909 9.5905 15.2772 9.62078L13.5867 8.85426ZM13.659 8.69213C13.6719 8.66312 13.6862 8.62606 13.7066 8.56857L15.4561 9.18883C15.4309 9.25992 15.3976 9.35077 15.355 9.4464L13.659 8.69213ZM13.7065 8.56883C14.3351 6.79421 15.9173 5.67195 17.7987 5.67195V7.52813C16.7066 7.52813 15.8233 8.15207 15.4562 9.18858L13.7065 8.56883ZM17.7987 5.67195C20.3113 5.67195 22.2282 7.86288 22.2282 10.3968H20.372C20.372 8.74362 19.1475 7.52813 17.7987 7.52813V5.67195ZM22.2282 10.3968L22.2283 15.8083L20.3722 15.8083L20.372 10.3968L22.2282 10.3968ZM22.2283 15.8083C22.2283 16.3172 22.0287 16.8006 21.669 17.1609L20.3553 15.8496C20.3626 15.8423 20.3662 15.836 20.3682 15.8312C20.3702 15.8263 20.3722 15.8191 20.3722 15.8083H22.2283ZM21.6684 17.1616C21.3081 17.5218 20.8245 17.7218 20.315 17.7218V15.8657C20.3259 15.8657 20.333 15.8637 20.3378 15.8617C20.3425 15.8598 20.3486 15.8563 20.3559 15.849L21.6684 17.1616ZM19.8286 16.0033L19.8286 16.0033L20.8015 17.5842L20.8014 17.5842L19.8286 16.0033ZM17.7987 8.05168C16.9163 8.05168 16.2472 8.52372 15.9496 9.36371L14.2 8.74387C14.7587 7.16663 16.1261 6.19549 17.7987 6.19549V8.05168ZM15.9489 9.36571C15.9196 9.44781 15.8815 9.55149 15.8335 9.65953L14.1377 8.90462C14.1562 8.86308 14.1752 8.81327 14.2007 8.74188L15.9489 9.36571ZM15.8332 9.66002C15.7907 9.75534 15.7551 9.83584 15.7279 9.89036C15.711 9.92421 15.6836 9.97636 15.6439 10.0341C15.6037 10.0927 15.5639 10.1368 15.5607 10.1405L14.1629 8.91921C14.1651 8.91671 14.1643 8.91752 14.1632 8.9188C14.1618 8.92045 14.1582 8.92465 14.1535 8.93042C14.1486 8.9364 14.1424 8.94412 14.1354 8.95329C14.1284 8.96256 14.1213 8.97241 14.1141 8.9828C14.0996 9.00395 14.0884 9.02249 14.0804 9.0365C14.073 9.04958 14.0685 9.05864 14.0674 9.06068C14.0664 9.06279 14.0671 9.06155 14.0702 9.05479C14.0733 9.04825 14.0776 9.03883 14.0838 9.02511C14.0899 9.01152 14.0973 8.9951 14.1064 8.97481C14.1155 8.95455 14.1258 8.93134 14.1379 8.90413L15.8332 9.66002ZM14.2552 10.2323L14.2515 10.2291L15.4648 8.82434L15.4684 8.82746L14.2552 10.2323ZM15.6782 9.96135C15.533 10.2354 15.1183 10.9532 13.9371 12.9982L12.3298 12.0699C13.5275 9.99608 13.9138 9.32677 14.0381 9.09214L15.6782 9.96135ZM13.9367 12.9989C14.011 12.8706 14.0317 12.7157 13.9935 12.572L12.1996 13.0488C12.1115 12.7174 12.1582 12.3665 12.3302 12.0692L13.9367 12.9989ZM13.9927 12.5691C13.9545 12.4272 13.8607 12.3032 13.7301 12.2278L12.8021 13.8354C12.504 13.6633 12.2891 13.3811 12.2004 13.0517L13.9927 12.5691ZM13.7284 12.2268C13.6227 12.1661 13.52 12.1665 13.4491 12.1856C13.3784 12.2047 13.2878 12.2562 13.2257 12.3643L14.8356 13.2883C14.4311 13.993 13.5067 14.2401 12.8039 13.8364L13.7284 12.2268ZM13.227 12.3621L14.2206 10.6418L15.828 11.5702L14.8343 13.2905L13.227 12.3621ZM14.2212 10.6408C14.4893 10.178 15.0364 9.94638 15.5613 10.0884L15.0764 11.8802C15.371 11.9599 15.6781 11.829 15.8274 11.5712L14.2212 10.6408ZM15.559 10.0878C16.0797 10.2273 16.4409 10.6992 16.4409 11.2372H14.5847C14.5847 11.5384 14.7869 11.8026 15.0787 11.8808L15.559 10.0878ZM16.4409 11.2372V16.6453H14.5847V11.2372H16.4409ZM16.4409 16.6453C16.4409 16.5396 16.4017 16.4434 16.3374 16.3698C16.2732 16.2964 16.1599 16.2205 16.003 16.2102L15.8811 18.0624C15.0998 18.011 14.5847 17.3304 14.5847 16.6453H16.4409ZM15.991 16.2095C15.8814 16.2037 15.7474 16.2439 15.6456 16.3455L16.957 17.6591C16.664 17.9516 16.2755 18.0833 15.893 18.0631L15.991 16.2095ZM15.6451 16.346C15.557 16.4341 15.508 16.5548 15.508 16.6758H17.3642C17.3642 17.0444 17.2195 17.3967 16.9576 17.6586L15.6451 16.346ZM15.508 16.6758V13.1388H17.3642V16.6758H15.508ZM15.508 13.1388C15.508 12.4816 16.0408 11.9488 16.698 11.9488V13.805C17.0659 13.805 17.3642 13.5067 17.3642 13.1388H15.508ZM16.698 11.9488C17.3549 11.9488 17.888 12.4811 17.888 13.1388H16.0318C16.0318 13.5069 16.3305 13.805 16.698 13.805V11.9488ZM17.888 13.1388L17.8878 17.4798L16.0317 17.4797L16.0318 13.1388L17.888 13.1388ZM17.8878 17.4798C17.8878 17.2217 17.6794 17.0133 17.4214 17.0133V18.8695C16.6543 18.8695 16.0317 18.2468 16.0317 17.4798H17.8878ZM17.4214 17.0133C17.3006 17.0133 17.1805 17.062 17.0926 17.1497L18.4038 18.4635C18.1418 18.725 17.7895 18.8695 17.4214 18.8695V17.0133ZM17.0913 17.1509C17.0036 17.2389 16.9549 17.359 16.9549 17.4798H18.8111C18.8111 17.8478 18.6667 18.2002 18.4051 18.4622L17.0913 17.1509ZM16.9549 17.4798V13.1388H18.8111V17.4798H16.9549ZM16.9549 13.1388C16.9549 12.482 17.4872 11.9488 18.1449 11.9488V13.805C18.5131 13.805 18.8111 13.5064 18.8111 13.1388H16.9549ZM18.1449 11.9488C18.8018 11.9488 19.3349 12.4811 19.3349 13.1388H17.4787C17.4787 13.5069 17.7774 13.805 18.1449 13.805V11.9488ZM19.3349 13.1388L19.3347 16.6352L17.4786 16.6351L17.4787 13.1388L19.3349 13.1388ZM19.3347 16.6351V16.6758H17.4786V16.6351H19.3347ZM19.3347 16.6758C19.3347 16.4171 19.1259 16.2092 18.8685 16.2092V18.0653C18.1017 18.0653 17.4786 17.4432 17.4786 16.6758H19.3347ZM18.8685 16.2092C18.7451 16.2092 18.6257 16.2593 18.5403 16.3445L19.8503 17.6594C19.5897 17.9191 19.2387 18.0653 18.8685 18.0653V16.2092ZM18.5397 16.3451C18.4509 16.4337 18.402 16.5548 18.402 16.6756H20.2582C20.2582 17.0441 20.1135 17.3967 19.8509 17.6588L18.5397 16.3451ZM18.402 16.6756V13.1386H20.2582V16.6756H18.402ZM18.402 13.1386C18.402 12.4818 18.9342 11.9486 19.592 11.9486V13.8048C19.9601 13.8048 20.2582 13.5062 20.2582 13.1386H18.402ZM19.592 11.9486C20.2488 11.9486 20.782 12.4809 20.782 13.1386H18.9258C18.9258 13.5068 19.2244 13.8048 19.592 13.8048V11.9486ZM20.782 13.1387L20.7817 15.8085L18.9255 15.8083L18.9258 13.1385L20.782 13.1387ZM20.7817 15.8084C20.7817 15.551 20.5737 15.3421 20.315 15.3421V17.1983C19.5477 17.1983 18.9255 16.5752 18.9255 15.8084H20.7817ZM20.315 15.3421C20.1933 15.3421 20.0732 15.3914 19.9859 15.4786L21.2972 16.7923C21.0361 17.0529 20.6844 17.1983 20.315 17.1983V15.3421ZM19.9853 15.4792C19.8969 15.5675 19.8484 15.6882 19.8484 15.8084H21.7046C21.7046 16.176 21.5607 16.5288 21.2978 16.7917L19.9853 15.4792ZM19.8484 15.8084L19.8486 10.3969L21.7048 10.397L21.7046 15.8085L19.8484 15.8084ZM19.8486 10.3969C19.8486 9.0202 18.8475 8.05173 17.7987 8.05173V6.19554C20.034 6.19554 21.7048 8.16422 21.7048 10.3969H19.8486ZM16.9063 6.86867L16.9063 6.86862L18.6911 7.37855L18.6911 7.3786L16.9063 6.86867Z" fill="#4CAF4F" mask="url(#path-1-inside-1_211_2338)"/>
<path d="M11.8325 21.7687C11.7082 21.8434 11.5474 21.8031 11.4731 21.679C11.3987 21.555 11.439 21.3941 11.5629 21.3196M11.8325 21.7687L14.0951 18.7241C14.3137 18.5928 14.602 18.6446 14.7368 18.8396M11.8325 21.7687L14.8653 19.9492H14.8655L14.8658 19.949M11.8325 21.7687L16.0298 20.3273C16.1358 20.2637 16.2106 20.163 16.2404 20.0434M11.5629 21.3196L14.5959 19.5001C14.7018 19.4365 14.7768 19.3357 14.8066 19.2164M11.5629 21.3196L11.5936 21.3708L11.6976 21.5442L11.6978 21.5445L11.7446 21.6227L11.8016 21.7176L11.8017 21.7175L11.8017 21.7175L11.802 21.7173M11.5629 21.3196L11.5936 21.3708M14.8066 19.2164C14.8394 19.0856 14.8145 18.9518 14.7368 18.8396M14.8066 19.2164L14.8815 19.2352L14.8743 19.0813C14.8694 18.9754 14.8384 18.8814 14.786 18.8058L14.7859 18.8056L14.7368 18.8396M14.8066 19.2164L14.8815 19.2352L14.8889 19.394L14.737 19.4851H14.7368L14.6266 19.5512L14.6266 19.5512L14.6265 19.5513L11.5937 21.3707M14.7368 18.8396L14.7858 18.8056L12.5465 22.9581C12.6417 22.9008 12.6732 22.7769 12.6155 22.6808C12.5582 22.5854 12.434 22.5541 12.3383 22.6115L15.3711 20.7921C15.4408 20.7502 15.5139 20.7186 15.5884 20.6969L16.0588 20.3757L16.0589 20.3757L16.0848 20.358C16.1951 20.2826 16.2681 20.1782 16.2981 20.058L16.2982 20.0579L16.2404 20.0434M11.5937 21.3707C11.6892 21.3137 11.8134 21.3446 11.871 21.4401C11.8711 21.4403 11.8712 21.4405 11.8713 21.4407C11.9286 21.5367 11.897 21.6602 11.802 21.7173M11.5937 21.3707C11.5937 21.3708 11.5936 21.3708 11.5936 21.3708M11.5937 21.3707L11.5936 21.3708M11.802 21.7173L14.8346 19.8981L14.8347 19.898L14.8348 19.898C14.8349 19.8979 14.835 19.8978 14.8351 19.8978L14.8653 19.9482L14.8655 19.9484L14.8658 19.949M11.802 21.7173L11.698 21.5444L11.6978 21.5441L11.6626 21.4855L11.5936 21.3708M14.8658 19.949V19.8785C14.9243 19.8402 14.9779 19.7958 15.0257 19.7462L15.5249 19.4856L15.525 19.4856L15.5526 19.4712C15.6329 19.4293 15.7138 19.4097 15.7906 19.4097C15.8322 19.4097 15.8751 19.4148 15.9188 19.4257C15.9188 19.4257 15.9188 19.4257 15.9188 19.4257C15.919 19.4257 15.9191 19.4258 15.9193 19.4258L16.017 19.0334M14.8658 19.949L15.5549 19.5356C15.6605 19.4723 15.7842 19.4537 15.9044 19.4836C16.0239 19.5134 16.1248 19.5882 16.1882 19.694C16.2517 19.7999 16.2702 19.9241 16.2404 20.0434M16.017 19.0334C16.017 19.0334 16.0169 19.0334 16.0169 19.0334M16.017 19.0334C16.2561 19.0932 16.4594 19.2441 16.5861 19.4551L16.6372 19.4245M16.017 19.0334L16.0314 18.9755M16.0169 19.0334L15.9189 19.4257C16.0547 19.4596 16.1672 19.543 16.2392 19.6631C16.2393 19.6632 16.2393 19.6633 16.2393 19.6633C16.2393 19.6633 16.2393 19.6634 16.2394 19.6634C16.3116 19.7841 16.332 19.9225 16.2982 20.0577L16.2982 20.0579L16.2404 20.0434M16.0169 19.0334C16.0169 19.0334 16.0168 19.0334 16.0168 19.0334L16.0162 19.0332C15.9445 19.0154 15.8718 19.0063 15.7996 19.0057M16.0169 19.0334L16.0314 18.9755M15.5793 21.1387L15.8409 20.9818L16.1107 21.1409C16.1915 21.1886 16.2525 21.2482 16.2938 21.3172L16.2939 21.3175C16.294 21.3175 16.294 21.3176 16.2941 21.3177L16.2432 21.3483M15.5793 21.1387L16.3531 21.7123C16.3868 21.5766 16.3663 21.4383 16.2941 21.3177L16.2432 21.3483M15.5793 21.1387L15.61 21.1899M15.5793 21.1387L15.5793 21.1387L15.61 21.1899M16.2432 21.3483C16.1122 21.13 15.828 21.059 15.61 21.1899M16.2432 21.3483C16.3068 21.4541 16.3253 21.5784 16.2955 21.6979L15.61 21.1899M16.6854 21.068C16.6876 21.0716 16.6898 21.0752 16.692 21.0789L16.6854 21.068ZM16.6854 21.068C16.6697 21.0802 16.6538 21.0922 16.6376 21.1038C16.6387 21.1056 16.6398 21.1073 16.6408 21.1091L16.6854 21.068ZM16.6131 20.3603C16.6466 20.2962 16.6727 20.2277 16.6906 20.156L16.6131 20.3603ZM16.6131 20.3603C16.6298 20.3706 16.6463 20.3813 16.6627 20.3924C16.6999 20.3231 16.7288 20.2488 16.7484 20.1703C16.8122 19.9153 16.7727 19.6505 16.6372 19.4245M16.6131 20.3603L16.6906 20.1559C16.7504 19.9168 16.7127 19.6665 16.5863 19.4555L16.5862 19.4552C16.5861 19.4552 16.5861 19.4552 16.5861 19.4551L16.6372 19.4245M16.6372 19.4245C16.5019 19.1988 16.2867 19.0393 16.0314 18.9755M16.0314 18.9755L15.7943 18.9457M15.7943 18.9457C15.7965 18.9657 15.7982 18.9857 15.7996 19.0057M15.7943 18.9457C15.7931 18.9456 15.7919 18.9456 15.7906 18.9456C15.6337 18.9456 15.4796 18.9858 15.3379 19.0598M15.7943 18.9457L15.3379 19.0598M15.7996 19.0057C15.8003 19.0165 15.8009 19.0274 15.8014 19.0382L15.7906 19.0387L15.5026 19.0521M15.7996 19.0057C15.7966 19.0056 15.7936 19.0056 15.7906 19.0056C15.6927 19.0057 15.5956 19.0214 15.5026 19.0521M15.5026 19.0521L15.3379 19.0598M15.5026 19.0521C15.4553 19.0678 15.4091 19.0873 15.3644 19.1106C15.3482 19.1191 15.3322 19.1281 15.3163 19.1375L15.3162 19.1376L15.2832 19.1574M15.3379 19.0598L15.0734 19.2833L15.0735 19.2832L15.2568 19.3291C15.2568 19.3292 15.2568 19.3292 15.2567 19.3293C15.271 19.2722 15.2798 19.2147 15.2832 19.1574M15.3379 19.0598L15.267 18.9241M15.3379 19.0598C15.3305 18.9017 15.2888 18.746 15.2089 18.607C15.1907 18.6151 15.1726 18.6236 15.1548 18.6323M15.2832 19.1574C15.2851 19.1256 15.2853 19.0939 15.2838 19.0623C15.2818 19.0157 15.2761 18.9695 15.267 18.9241M15.2832 19.1574L15.267 18.9241M15.267 18.9241L15.1231 18.6484C15.1336 18.6429 15.1442 18.6376 15.1548 18.6323M15.267 18.9241L15.1183 18.5754C15.1312 18.594 15.1434 18.613 15.1548 18.6323M15.267 18.9241C15.2466 18.822 15.2089 18.7235 15.1548 18.6323M16.3464 20.7412L16.4258 20.6067C16.3914 20.6389 16.3544 20.6685 16.3151 20.6954C16.3 20.7057 16.2846 20.7156 16.2688 20.7251L16.2685 20.7253L16.235 20.7454L16.3464 20.7412ZM8.93563 18.5816L8.88287 18.5538C8.87317 18.5713 8.84902 18.6148 8.81336 18.679C8.80452 18.695 8.79499 18.7121 8.78479 18.7305C8.80297 18.7396 8.82131 18.7475 8.83968 18.7545C8.87105 18.6979 8.90303 18.6403 8.93563 18.5816ZM13.0826 23.8522C13.0826 23.8523 13.0825 23.8523 13.0825 23.8523L13.0826 23.8522Z" fill="#4CAF4F" stroke="#4CAF4F" stroke-width="0.928093"/>
<path d="M24.7845 19.4177L24.7844 19.4178L24.7845 19.4177ZM24.7845 19.4177C24.6872 19.2436 24.6912 19.0291 24.7942 18.8574L24.7845 19.4177ZM19.0429 19.0055C18.9704 19.0061 18.8975 19.0153 18.8255 19.0333L19.0429 19.0055ZM19.0429 19.0055C19.0442 18.9855 19.046 18.9656 19.0481 18.9456L19.0429 19.0055ZM24.3668 19.7432L24.3274 19.6722L24.3668 19.7432ZM23.2487 21.3707C23.2486 21.3706 23.2485 21.3706 23.2484 21.3705L23.2485 21.3706L23.2487 21.3707ZM21.7598 23.8527C21.7597 23.8526 21.7596 23.8525 21.7595 23.8525L21.7598 23.8527ZM21.7593 23.8524L21.7595 23.8524L21.7593 23.8524Z" fill="#4CAF4F" stroke="#4CAF4F" stroke-width="0.928093"/>
</svg>
