<svg width="34" height="34" viewBox="0 0 34 34" fill="none" xmlns="http://www.w3.org/2000/svg">
<path d="M28.0713 29.4132V26.629C28.0713 25.1521 27.4846 23.7357 26.4403 22.6914C25.396 21.6471 23.9796 21.0604 22.5027 21.0604H21.1106C20.7414 21.0604 20.3873 20.9137 20.1262 20.6527C19.8651 20.3916 19.7184 20.0375 19.7184 19.6683V12.7076C19.7184 11.9691 19.4251 11.2609 18.903 10.7388C18.3808 10.2166 17.6726 9.92329 16.9342 9.92329C16.1957 9.92329 15.4875 10.2166 14.9654 10.7388C14.4432 11.2609 14.1499 11.9691 14.1499 12.7076V25.2368L10.8088 20.782C10.5494 20.4362 10.2131 20.1555 9.8265 19.9622C9.43989 19.7689 9.01358 19.6683 8.58134 19.6683H7.97715C6.77295 19.6683 5.79706 20.6442 5.79706 21.8484C5.79706 22.2437 5.90425 22.6321 6.10751 22.9704L9.97347 29.4132M16.9342 5.74688V4.35474V5.74688ZM25.287 14.0997H26.6791H25.287ZM7.1892 14.0997H8.58134H7.1892ZM10.451 7.61652L9.46674 6.63228L10.451 7.61652ZM23.4174 7.61652L24.4016 6.63228L23.4174 7.61652Z" fill="#4CAF4F"/>
<path d="M28.0713 29.4132V26.629C28.0713 25.1521 27.4846 23.7357 26.4403 22.6914C25.396 21.6471 23.9796 21.0604 22.5027 21.0604H21.1106C20.7414 21.0604 20.3873 20.9137 20.1262 20.6527C19.8651 20.3916 19.7184 20.0375 19.7184 19.6683V12.7076C19.7184 11.9691 19.4251 11.2609 18.903 10.7388C18.3808 10.2166 17.6726 9.92329 16.9342 9.92329V9.92329C16.1957 9.92329 15.4875 10.2166 14.9654 10.7388C14.4432 11.2609 14.1499 11.9691 14.1499 12.7076V25.2368L10.8088 20.782C10.5494 20.4362 10.2131 20.1555 9.8265 19.9622C9.43989 19.7689 9.01358 19.6683 8.58134 19.6683H7.97715C6.77295 19.6683 5.79706 20.6442 5.79706 21.8484C5.79706 22.2437 5.90425 22.6321 6.10751 22.9704L9.97347 29.4132M16.9342 5.74688V4.35474M25.287 14.0997H26.6791M7.1892 14.0997H8.58134M10.451 7.61652L9.46674 6.63228M23.4174 7.61652L24.4016 6.63228" stroke="#4CAF4F" stroke-width="1.39214" stroke-linecap="round" stroke-linejoin="round"/>
</svg>
