<svg width="34" height="34" viewBox="0 0 34 34" fill="none" xmlns="http://www.w3.org/2000/svg">
<g clip-path="url(#clip0_211_2332)">
<path d="M32.4496 27.0916L32.4496 27.0916C32.5809 27.0006 32.6927 26.8844 32.7787 26.7498L33.072 26.9371L32.7787 26.7498C32.8646 26.6152 32.9229 26.4649 32.9503 26.3075C32.9776 26.1501 32.9734 25.9889 32.9378 25.8332L33.2771 25.7558L32.9378 25.8332C32.9023 25.6775 32.8362 25.5304 32.7433 25.4005L32.7417 25.3983C31.4347 23.5404 29.6537 22.0665 27.5841 21.1299L27.0794 20.9015L27.5042 20.546C28.764 19.4915 29.6682 18.0743 30.0937 16.4875C30.5192 14.9007 30.4453 13.2213 29.8821 11.678C29.3189 10.1347 28.2938 8.80242 26.9463 7.86263C25.5987 6.92284 23.9943 6.42118 22.3514 6.42595L22.3499 6.42595C21.6187 6.42474 20.891 6.52569 20.1879 6.72588L20.1816 6.72766L20.1816 6.7276C20.0254 6.76893 19.879 6.84092 19.7509 6.93938C19.6228 7.03784 19.5156 7.16079 19.4355 7.30109C19.3553 7.44139 19.3039 7.59622 19.2842 7.75657C19.2645 7.91693 19.2769 8.07961 19.3206 8.23514C19.3644 8.39066 19.4387 8.53592 19.5391 8.66247L19.2665 8.87884L19.5391 8.66247C19.6396 8.78902 19.7642 8.89432 19.9057 8.97225L19.7378 9.27713L19.9057 8.97225C20.0472 9.05018 20.2028 9.09917 20.3635 9.11638C20.5241 9.13359 20.6866 9.11867 20.8414 9.07248L20.8454 9.07129L20.8454 9.07132C21.3351 8.93163 21.8419 8.86124 22.3511 8.86219M32.4496 27.0916L22.3504 9.21023M32.4496 27.0916L32.4455 27.0945C32.2424 27.2397 31.9987 27.3175 31.749 27.3167C31.5537 27.3156 31.3614 27.2679 31.1881 27.1777C31.0149 27.0876 30.8657 26.9576 30.7526 26.7984M32.4496 27.0916L30.4683 26.9992M22.3511 8.86219L22.3504 9.21023M22.3511 8.86219C22.3509 8.86219 22.3507 8.86219 22.3504 8.86219V9.21023M22.3511 8.86219C23.8277 8.86237 25.2438 9.44903 26.288 10.4932C27.3323 11.5375 27.919 12.9539 27.919 14.4307C27.919 15.9076 27.3323 17.324 26.288 18.3683C25.2437 19.4126 23.8273 19.9993 22.3504 19.9993C22.0274 19.9993 21.7175 20.1276 21.4891 20.3561C21.2607 20.5845 21.1323 20.8944 21.1323 21.2174C21.1323 21.5405 21.2607 21.8503 21.4891 22.0788C21.7175 22.3072 22.0274 22.4356 22.3504 22.4356H22.3508C23.9982 22.4374 25.6212 22.8346 27.0832 23.5938C28.5452 24.353 29.8035 25.4519 30.7526 26.7984M22.3504 9.21023C23.735 9.21023 25.0629 9.76025 26.0419 10.7393C27.0209 11.7183 27.571 13.0462 27.571 14.4307C27.571 15.8153 27.0209 17.1432 26.0419 18.1222C25.0629 19.1013 23.735 19.6513 22.3504 19.6513C21.9351 19.6513 21.5367 19.8163 21.243 20.11C20.9493 20.4037 20.7843 20.8021 20.7843 21.2174C20.7843 21.6328 20.9493 22.0312 21.243 22.3249C21.5367 22.6186 21.9351 22.7836 22.3504 22.7836C23.9422 22.7853 25.5102 23.1691 26.9228 23.9027C28.3354 24.6362 29.5513 25.6981 30.4683 26.9992M30.7526 26.7984C30.7525 26.7982 30.7524 26.798 30.7522 26.7978L30.4683 26.9992M30.7526 26.7984C30.7527 26.7985 30.7528 26.7986 30.7528 26.7986L30.4683 26.9992M16.8667 20.5465L16.444 20.9021L16.9473 21.1299C19.0169 22.0665 20.7978 23.5404 22.1049 25.3983L22.1099 25.4054L22.1152 25.4122C22.2168 25.5423 22.2908 25.6917 22.3329 25.8512C22.375 26.0108 22.3842 26.1773 22.3599 26.3405C22.3357 26.5037 22.2786 26.6604 22.192 26.8008C22.1054 26.9413 21.9912 27.0628 21.8563 27.1578C21.7214 27.2528 21.5685 27.3194 21.4071 27.3535C21.2456 27.3877 21.0789 27.3886 20.9171 27.3564C20.7552 27.3242 20.6016 27.2594 20.4656 27.166C20.3295 27.0726 20.2139 26.9525 20.1256 26.8131L20.1212 26.806L20.1164 26.7992C19.1692 25.4501 17.9112 24.349 16.4486 23.5888C14.986 22.8286 13.3619 22.4318 11.7136 22.4318C10.0653 22.4318 8.4412 22.8286 6.97864 23.5888C5.51607 24.349 4.25803 25.4501 3.31087 26.7992L3.3101 26.8003C3.19875 26.9602 3.0503 27.0907 2.87746 27.1807C2.70461 27.2706 2.51253 27.3173 2.31768 27.3167L2.31555 27.3167C2.06566 27.3176 1.82183 27.2398 1.61853 27.0945L1.61686 27.0933C1.35334 26.9073 1.17436 26.6244 1.11918 26.3066C1.06401 25.9889 1.13706 25.6623 1.32231 25.3983C2.62941 23.5404 4.41036 22.0665 6.47998 21.1299L6.98329 20.9021L6.56053 20.5465C5.30411 19.4895 4.40309 18.0718 3.97963 16.4855C3.55618 14.8991 3.63077 13.2209 4.19329 11.6784C4.75582 10.1359 5.77907 8.80368 7.12432 7.86236C8.46957 6.92104 10.0717 6.41615 11.7136 6.41615C13.3555 6.41615 14.9577 6.92104 16.3029 7.86236C17.6482 8.80368 18.6714 10.1359 19.234 11.6784C19.7965 13.2209 19.8711 14.8991 19.4476 16.4855C19.0242 18.0718 18.1231 19.4895 16.8667 20.5465ZM7.08354 11.337C6.47166 12.2528 6.14507 13.3294 6.14507 14.4307C6.14507 15.9076 6.73175 17.324 7.77606 18.3683C8.82037 19.4126 10.2368 19.9993 11.7136 19.9993C12.815 19.9993 13.8916 19.6727 14.8073 19.0608C15.7231 18.449 16.4368 17.5793 16.8583 16.5617C17.2798 15.5442 17.39 14.4246 17.1752 13.3444C16.9603 12.2642 16.43 11.272 15.6512 10.4932C14.8724 9.71441 13.8802 9.18406 12.8 8.96919C11.7198 8.75433 10.6002 8.8646 9.58263 9.28607C8.56511 9.70755 7.69542 10.4213 7.08354 11.337Z" fill="#4CAF4F" stroke="#4CAF4F" stroke-width="0.696069"/>
</g>
<defs>
<clipPath id="clip0_211_2332">
<rect width="33.4113" height="33.4113" fill="white" transform="translate(0.228516 0.335449)"/>
</clipPath>
</defs>
</svg>
