<svg width="35" height="34" viewBox="0 0 35 34" fill="none" xmlns="http://www.w3.org/2000/svg">
<path d="M4.43665 11.6633V12.0113H4.78468H29.8432H30.1912V11.6633V10.0972C30.1912 9.31256 29.8795 8.56011 29.3248 8.00532C28.77 7.45053 28.0175 7.13886 27.2329 7.13886H7.39494C6.61035 7.13886 5.8579 7.45053 5.30311 8.00532C4.74832 8.56011 4.43665 9.31256 4.43665 10.0972V11.6633ZM30.1912 13.7515V13.4035H29.8432H4.78468H4.43665V13.7515V23.6705C4.43665 24.4551 4.74832 25.2075 5.30311 25.7623C5.8579 26.3171 6.61035 26.6288 7.39494 26.6288H27.2329C28.0175 26.6288 28.77 26.3171 29.3248 25.7623C29.8795 25.2075 30.1912 24.4551 30.1912 23.6705V13.7515ZM3.04451 10.0972C3.04451 8.94334 3.50285 7.83679 4.31872 7.02093C5.13458 6.20506 6.24113 5.74672 7.39494 5.74672H27.2329C28.3867 5.74672 29.4933 6.20506 30.3091 7.02093C31.125 7.83679 31.5834 8.94334 31.5834 10.0972V23.6705C31.5834 24.8243 31.125 25.9309 30.3091 26.7467C29.4933 27.5626 28.3867 28.0209 27.2329 28.0209H7.39494C6.24113 28.0209 5.13458 27.5626 4.31872 26.7467C3.50285 25.9309 3.04451 24.8243 3.04451 23.6705V10.0972ZM22.5345 20.3642H25.6668C25.8514 20.3642 26.0284 20.4375 26.159 20.568C26.2895 20.6986 26.3628 20.8756 26.3628 21.0602C26.3628 21.2449 26.2895 21.4219 26.159 21.5524C26.0284 21.683 25.8514 21.7563 25.6668 21.7563H22.5345C22.3498 21.7563 22.1728 21.683 22.0423 21.5524C21.9117 21.4219 21.8384 21.2449 21.8384 21.0602C21.8384 20.8756 21.9117 20.6986 22.0423 20.568C22.1728 20.4375 22.3498 20.3642 22.5345 20.3642Z" fill="#4CAF4F" stroke="#4CAF4F" stroke-width="0.696069"/>
</svg>
