<svg width="308" height="230" viewBox="0 0 308 230" fill="none" xmlns="http://www.w3.org/2000/svg">
<path d="M153.903 229.382C219.724 229.382 273.082 226.267 273.082 222.424C273.082 218.581 219.724 215.466 153.903 215.466C88.0818 215.466 34.7234 218.581 34.7234 222.424C34.7234 226.267 88.0818 229.382 153.903 229.382Z" fill="#F5F5F5"/>
<path d="M214.909 67.0283L208.812 64.5696C208.812 64.5696 200.766 79.2419 198.46 79.9856C195.326 80.9937 188.835 83.7966 184.987 84.2884C184.464 84.903 183.61 86.8147 183.69 87.5093C188.859 89.2365 200.218 86.9438 202.653 85.1366C208.191 81.0367 214.909 67.0283 214.909 67.0283Z" fill="#E58A7B"/>
<path d="M216.784 63.6906C217.921 67.8888 211.762 76.3344 211.762 76.3344L203.691 71.8104C203.691 71.8104 205.203 68.3375 207.047 64.8031C210.004 59.0928 215.487 58.9023 216.784 63.6906Z" fill="#4CAF4F"/>
<path opacity="0.2" d="M216.784 63.6906C217.921 67.8888 211.762 76.3344 211.762 76.3344L203.691 71.8104C203.691 71.8104 205.203 68.3375 207.047 64.8031C210.004 59.0928 215.487 58.9023 216.784 63.6906Z" fill="black"/>
<path opacity="0.2" d="M206.894 73.6176L210.072 75.4002L210.631 65.6453C208.781 67.0652 207.478 71.3433 206.894 73.6176Z" fill="black"/>
<path d="M211.473 60.5311C211.473 60.5311 205.191 74.5089 208.855 100.534H233.608C234.001 96.7355 232.698 78.1969 237.412 60.2976C234.697 59.7669 231.95 59.4158 229.188 59.2465C225.685 59.0435 222.174 59.0435 218.671 59.2465C216.243 59.493 213.837 59.9225 211.473 60.5311Z" fill="#4CAF4F"/>
<path opacity="0.2" d="M211.473 60.5311C211.473 60.5311 205.191 74.5089 208.855 100.534H233.608C234.001 96.7355 232.698 78.1969 237.412 60.2976C234.697 59.7669 231.95 59.4158 229.188 59.2465C225.685 59.0435 222.174 59.0435 218.671 59.2465C216.243 59.493 213.837 59.9225 211.473 60.5311Z" fill="black"/>
<g style="mix-blend-mode:multiply">
<path d="M205.732 222.977C205.695 223.641 215.081 224.176 226.692 224.176C238.304 224.176 247.757 223.641 247.794 222.977C247.831 222.314 238.451 221.785 226.834 221.785C215.217 221.785 205.775 222.32 205.732 222.977Z" fill="#E8ECF1"/>
</g>
<path d="M222.255 205.535L217.865 207.234L221.646 217.004L226.037 215.304L222.255 205.535Z" fill="#E58A7B"/>
<path d="M241.832 218.251H237.203L235.507 207.537H240.135L241.832 218.251Z" fill="#E58A7B"/>
<path d="M236.884 217.716H242.084C242.174 217.716 242.261 217.748 242.33 217.807C242.399 217.865 242.444 217.946 242.459 218.035L243.129 222.148C243.143 222.251 243.135 222.356 243.105 222.455C243.075 222.555 243.023 222.647 242.955 222.725C242.886 222.804 242.801 222.866 242.706 222.908C242.611 222.951 242.508 222.972 242.404 222.971C240.59 222.941 239.717 222.83 237.431 222.83C236.023 222.83 233.128 222.977 231.173 222.977C229.219 222.977 229.09 221.06 229.895 220.881C233.509 220.101 234.911 219.037 236.115 218.005C236.328 217.818 236.601 217.715 236.884 217.716Z" fill="#263238"/>
<path d="M221.517 216.13L226.434 214.691C226.522 214.667 226.616 214.673 226.7 214.709C226.783 214.744 226.852 214.808 226.895 214.888L228.739 218.576C228.782 218.67 228.804 218.772 228.804 218.875C228.803 218.977 228.78 219.079 228.736 219.172C228.692 219.265 228.628 219.347 228.549 219.413C228.47 219.479 228.378 219.527 228.278 219.554C226.49 220.045 225.291 220.347 223.054 220.998C221.511 221.447 219.937 222.178 218.413 222.664C217.356 223.002 214.872 223.014 213.588 223.014C211.688 223.014 211.264 221.01 212.082 220.918C214.141 220.691 214.417 220.795 215.555 220.224C217.415 219.41 219.102 218.246 220.521 216.794C220.789 216.489 221.132 216.26 221.517 216.13Z" fill="#263238"/>
<path d="M185.761 84.2638L180.672 82.1309L178.576 87.7736C180.662 88.0913 182.784 88.0913 184.87 87.7736L185.761 84.2638Z" fill="#E58A7B"/>
<path d="M176.885 81.9832L176.75 85.7327L178.576 87.7611L180.672 82.1184L176.885 81.9832Z" fill="#E58A7B"/>
<path d="M222.857 206.364L218.453 208.064L220.404 213.116L224.808 211.416L222.857 206.364Z" fill="#CF6F64"/>
<path d="M240.135 207.537H235.507L236.386 213.063H241.014L240.135 207.537Z" fill="#CF6F64"/>
<path opacity="0.2" d="M208.068 93.4962C208.16 94.6088 208.265 95.7459 208.4 96.9138L226.803 90.9392C229.677 90.0874 232.175 88.2813 233.884 85.8189C233.958 84.1778 234.05 82.4505 234.192 80.6495C234.253 79.7767 234.327 78.8793 234.407 77.9695C234.487 77.0598 234.597 76.0518 234.714 75.0806L208.068 93.4962Z" fill="black"/>
<path d="M214.079 73.3348L213.465 73.2611C213.827 70.1877 216.12 67.7658 218.536 67.8273V68.442C216.421 68.399 214.405 70.5811 214.079 73.3348Z" fill="white"/>
<path d="M217.356 79.0083H217.251V78.3937C219.366 78.4736 221.351 76.2669 221.677 73.5193L222.291 73.593C221.966 76.5988 219.747 79.0083 217.356 79.0083Z" fill="white"/>
<path d="M228.844 47.4016C227.977 50.7885 226.957 56.9905 229.188 59.2464C229.188 59.2464 227.627 62.6824 221.339 62.6824C215.591 62.6824 218.671 59.2464 218.671 59.2464C222.494 58.349 222.562 55.5584 222.058 52.9152L228.844 47.4016Z" fill="#E58A7B"/>
<path d="M226.078 49.6514L222.064 52.9153C222.188 53.5227 222.26 54.1396 222.279 54.7593C223.453 55.9272 225.807 52.9706 226.047 51.4585C226.169 50.8632 226.179 50.2505 226.078 49.6514Z" fill="#CF6F64"/>
<path d="M215.161 47.3587C215.441 47.8428 215.817 48.264 216.266 48.5961C216.716 48.9282 217.229 49.164 217.774 49.2888C219.249 49.6146 219.986 48.2561 219.581 46.8915C219.218 45.6622 218.007 44.0087 216.507 44.2915C216.186 44.3577 215.885 44.4998 215.63 44.7061C215.375 44.9124 215.173 45.1769 215.042 45.4772C214.91 45.7776 214.852 46.1051 214.873 46.4325C214.894 46.7598 214.992 47.0774 215.161 47.3587Z" fill="#CF6F64"/>
<path d="M217.601 36.522C215.303 37.573 214.491 46.7071 217.38 48.0594C220.269 49.4117 221.953 34.5243 217.601 36.522Z" fill="#263238"/>
<path d="M229.545 42.306C228.991 46.8914 228.93 49.5899 226.471 51.9379C225.709 52.7171 224.747 53.2706 223.69 53.5373C222.634 53.804 221.524 53.7735 220.483 53.4491C219.443 53.1248 218.513 52.5193 217.795 51.6994C217.077 50.8795 216.599 49.8772 216.415 48.8031C215.671 44.6848 216.698 37.8803 221.296 36.0547C222.262 35.6286 223.324 35.4687 224.373 35.5914C225.421 35.7142 226.418 36.1152 227.26 36.7529C228.101 37.3906 228.757 38.2418 229.159 39.2182C229.56 40.1946 229.694 41.2607 229.545 42.306Z" fill="#E58A7B"/>
<path d="M221.99 38.8945C225.396 38.0278 227.897 37.4377 227 40.2714C225.814 44.0578 224.387 47.7213 226.299 47.8872C227.467 47.9917 232.63 45.8035 231.973 43.5845C231.401 41.6544 233.817 41.1258 234.247 40.1485C235.839 36.6079 231.284 37.0751 232.095 34.9237C232.907 32.7724 228.407 29.3056 225.949 31.0328C221.947 33.8235 215.081 33.7804 218.689 29.1888C221.277 25.9126 216.661 26.5826 216.661 26.5826C216.661 26.5826 219.452 28.2361 214.756 30.7931C209.789 33.5223 214.344 40.8553 221.99 38.8945Z" fill="#263238"/>
<path d="M231.352 47.3587C230.679 48.3314 229.669 49.0194 228.518 49.2888C227 49.6146 226.416 48.2561 226.988 46.8915C227.498 45.6622 228.899 44.0087 230.35 44.2915C231.8 44.5742 232.132 46.1539 231.352 47.3587Z" fill="#E58A7B"/>
<path d="M208.855 100.534C208.855 100.534 204.699 137.722 204.374 151.835C204.042 166.513 218.456 212.313 218.456 212.313L225.832 209.239C225.832 209.239 217.226 167.392 218.456 152.978C219.759 137.261 225.144 100.559 225.144 100.559L208.855 100.534Z" fill="#4CAF4F"/>
<path opacity="0.2" d="M219.181 110.744C215.868 117.616 218.099 131.206 219.894 139.259C220.576 133.573 221.388 127.402 222.156 121.691C222.082 112.914 221.4 106.134 219.181 110.744Z" fill="black"/>
<path d="M225.506 206.805C225.543 206.805 226.379 209.153 226.379 209.153L217.872 212.731L216.532 210.235L225.506 206.805Z" fill="#4CAF4F"/>
<path d="M217.638 100.534C217.638 100.534 220.816 135.903 222.918 149.149C225.23 163.661 234.29 211.993 234.29 211.993H242.766C242.766 211.993 237.689 164.835 236.73 150.464C235.685 134.876 233.608 100.534 233.608 100.534H217.638Z" fill="#4CAF4F"/>
<path d="M242.895 209.786C242.932 209.786 243.178 212.153 243.178 212.153H233.86L233.196 209.436L242.895 209.786Z" fill="#4CAF4F"/>
<path opacity="0.2" d="M239.65 206.984C239.631 206.984 239.612 206.977 239.597 206.965C239.583 206.952 239.573 206.935 239.57 206.916C239.521 206.486 234.941 163.889 234.081 150.981C233.147 136.978 231.266 105.919 231.247 105.605C231.246 105.595 231.248 105.585 231.251 105.575C231.254 105.566 231.26 105.557 231.267 105.549C231.274 105.542 231.282 105.536 231.291 105.532C231.301 105.527 231.311 105.525 231.321 105.525C231.341 105.525 231.361 105.533 231.375 105.547C231.39 105.56 231.399 105.579 231.401 105.599C231.401 105.913 233.3 136.948 234.235 150.974C235.095 163.883 239.674 206.449 239.717 206.91C239.719 206.92 239.719 206.93 239.716 206.94C239.714 206.95 239.709 206.96 239.703 206.968C239.696 206.976 239.688 206.983 239.679 206.988C239.67 206.992 239.66 206.995 239.65 206.996V206.984Z" fill="black"/>
<path d="M222.513 43.5846C222.513 43.9595 222.279 44.2607 222.033 44.2607C221.787 44.2607 221.609 43.9595 221.634 43.5846C221.658 43.2096 221.867 42.9084 222.113 42.9084C222.359 42.9084 222.537 43.2158 222.513 43.5846Z" fill="#263238"/>
<path d="M218.296 43.5846C218.296 43.9595 218.056 44.2607 217.817 44.2607C217.577 44.2607 217.392 43.9595 217.411 43.5846C217.429 43.2096 217.651 42.9084 217.896 42.9084C218.142 42.9084 218.321 43.2158 218.296 43.5846Z" fill="#263238"/>
<path d="M219.624 43.7751C219.111 44.9201 218.449 45.9927 217.657 46.9653C218.271 47.58 219.421 47.2972 219.421 47.2972L219.624 43.7751Z" fill="#DF5753"/>
<path d="M219.734 48.8644C219.72 48.8645 219.706 48.8616 219.693 48.8559C219.68 48.8503 219.668 48.8421 219.658 48.8317C219.648 48.8213 219.641 48.8091 219.636 48.7957C219.631 48.7823 219.629 48.768 219.63 48.7538C219.631 48.7239 219.644 48.6958 219.666 48.6752C219.688 48.6546 219.717 48.6431 219.747 48.6432C220.217 48.6464 220.682 48.5443 221.107 48.3443C221.533 48.1444 221.908 47.8516 222.205 47.4876C222.227 47.469 222.254 47.4587 222.282 47.4587C222.31 47.4587 222.338 47.469 222.359 47.4876C222.379 47.5082 222.39 47.5357 222.39 47.5644C222.39 47.5931 222.379 47.6206 222.359 47.6412C222.041 48.0281 221.64 48.3388 221.185 48.5505C220.731 48.7621 220.235 48.8694 219.734 48.8644Z" fill="#263238"/>
<path d="M223.263 42.4534C223.233 42.4685 223.2 42.4764 223.167 42.4764C223.134 42.4764 223.102 42.4685 223.072 42.4534C222.842 42.3048 222.58 42.2123 222.308 42.1834C222.036 42.1546 221.761 42.1902 221.505 42.2874C221.48 42.2999 221.453 42.3073 221.425 42.3091C221.397 42.3109 221.369 42.3071 221.343 42.2979C221.316 42.2887 221.292 42.2744 221.271 42.2557C221.25 42.237 221.234 42.2144 221.222 42.1891C221.199 42.1344 221.199 42.0729 221.22 42.0178C221.242 41.9627 221.285 41.9183 221.339 41.894C221.66 41.7628 222.008 41.711 222.354 41.7431C222.7 41.7752 223.032 41.8903 223.324 42.0784C223.348 42.0945 223.368 42.115 223.383 42.1389C223.399 42.1627 223.41 42.1895 223.415 42.2175C223.42 42.2455 223.419 42.2743 223.413 42.3021C223.407 42.3299 223.396 42.3563 223.379 42.3796C223.348 42.4149 223.308 42.4405 223.263 42.4534Z" fill="#263238"/>
<path d="M216.667 41.2242C216.634 41.2163 216.605 41.1992 216.581 41.175C216.561 41.155 216.544 41.1311 216.533 41.1047C216.522 41.0783 216.517 41.05 216.517 41.0213C216.517 40.9927 216.522 40.9644 216.533 40.938C216.544 40.9116 216.561 40.8877 216.581 40.8677C216.817 40.6034 217.11 40.3972 217.438 40.265C217.767 40.1328 218.121 40.0782 218.474 40.1055C218.503 40.1098 218.53 40.12 218.554 40.1352C218.578 40.1505 218.599 40.1705 218.615 40.1942C218.631 40.2178 218.642 40.2445 218.648 40.2726C218.653 40.3007 218.653 40.3296 218.646 40.3575C218.633 40.4144 218.6 40.4646 218.552 40.4985C218.505 40.5325 218.446 40.5479 218.388 40.5419C218.109 40.5243 217.829 40.5705 217.571 40.677C217.312 40.7835 217.081 40.9475 216.895 41.1566C216.867 41.1877 216.831 41.2105 216.79 41.2224C216.75 41.2343 216.708 41.2349 216.667 41.2242Z" fill="#263238"/>
<path d="M239.791 66.346L233.399 64.6433C233.399 64.6433 227.129 80.0778 224.91 81.0797C221.898 82.4566 214.27 87.2265 211.024 89.4823C210.846 90.2507 210.988 92.2852 211.393 92.8446C216.925 91.8365 227.516 87.7612 229.729 85.6898C234.776 80.9629 239.791 66.346 239.791 66.346Z" fill="#E58A7B"/>
<path d="M235.329 218.527C235.017 218.552 234.706 218.467 234.45 218.288C234.371 218.216 234.311 218.125 234.278 218.024C234.245 217.923 234.238 217.814 234.259 217.71C234.263 217.644 234.285 217.581 234.321 217.527C234.358 217.473 234.409 217.43 234.468 217.402C234.984 217.138 236.429 218.054 236.595 218.158C236.613 218.17 236.627 218.187 236.635 218.207C236.643 218.227 236.644 218.249 236.638 218.269C236.633 218.291 236.622 218.31 236.607 218.326C236.592 218.343 236.573 218.355 236.552 218.361C236.151 218.46 235.741 218.515 235.329 218.527ZM234.714 217.568C234.667 217.558 234.619 217.558 234.573 217.568C234.549 217.58 234.53 217.599 234.516 217.622C234.503 217.645 234.497 217.671 234.499 217.697C234.482 217.769 234.485 217.844 234.507 217.914C234.528 217.984 234.568 218.047 234.622 218.097C234.862 218.312 235.464 218.337 236.257 218.183C235.785 217.872 235.253 217.663 234.696 217.568H234.714Z" fill="#4CAF4F"/>
<path d="M236.521 218.361C236.505 218.366 236.488 218.366 236.472 218.361C236.011 218.103 235.144 217.089 235.273 216.573C235.293 216.491 235.339 216.418 235.405 216.365C235.47 216.313 235.552 216.284 235.636 216.284C235.719 216.273 235.802 216.28 235.882 216.304C235.962 216.328 236.035 216.37 236.097 216.425C236.607 216.861 236.638 218.201 236.638 218.269C236.641 218.289 236.637 218.31 236.627 218.328C236.617 218.345 236.601 218.359 236.583 218.367C236.562 218.372 236.541 218.369 236.521 218.361ZM235.697 216.486H235.654C235.513 216.486 235.495 216.566 235.489 216.597C235.415 216.898 235.962 217.667 236.417 218.029C236.415 217.51 236.254 217.004 235.956 216.579C235.884 216.516 235.792 216.484 235.697 216.486Z" fill="#4CAF4F"/>
<path d="M219.009 217.759C218.633 217.89 218.223 217.89 217.847 217.759C217.762 217.713 217.69 217.645 217.637 217.564C217.584 217.482 217.553 217.389 217.546 217.292C217.538 217.231 217.546 217.169 217.569 217.112C217.591 217.055 217.628 217.005 217.675 216.966C218.167 216.523 220.177 216.966 220.404 217.052C220.426 217.058 220.445 217.07 220.459 217.088C220.472 217.106 220.479 217.128 220.478 217.15C220.479 217.173 220.473 217.196 220.461 217.216C220.449 217.236 220.431 217.251 220.411 217.261C219.958 217.465 219.489 217.632 219.009 217.759ZM218.007 217.027C217.937 217.041 217.871 217.073 217.817 217.12C217.797 217.134 217.782 217.154 217.773 217.177C217.765 217.2 217.763 217.225 217.767 217.249C217.771 217.313 217.792 217.376 217.826 217.43C217.86 217.485 217.908 217.53 217.964 217.562C218.29 217.734 219.046 217.599 220.023 217.187C219.365 217.021 218.683 216.967 218.007 217.027Z" fill="#4CAF4F"/>
<path d="M220.392 217.261H220.343C219.728 217.15 218.499 216.443 218.462 215.915C218.462 215.792 218.517 215.62 218.812 215.521C218.912 215.486 219.018 215.471 219.123 215.477C219.229 215.484 219.332 215.511 219.427 215.558C220.091 215.884 220.441 217.064 220.46 217.12C220.464 217.138 220.463 217.158 220.458 217.176C220.453 217.194 220.443 217.211 220.429 217.224C220.42 217.239 220.407 217.252 220.392 217.261ZM218.935 215.706H218.874C218.683 215.773 218.683 215.853 218.683 215.878C218.683 216.198 219.575 216.782 220.195 216.978C220.052 216.485 219.75 216.052 219.335 215.749C219.211 215.686 219.069 215.671 218.935 215.706Z" fill="#4CAF4F"/>
<path d="M211.547 89.1196L205.136 92.0701L204.392 93.9141L206.759 95.5061C206.759 95.5061 211.184 95.0267 212.444 92.1807L211.547 89.1196Z" fill="#E58A7B"/>
<path d="M211.817 92.949C211.674 91.7172 211.267 90.5307 210.625 89.47L211.639 88.7078C212.402 89.9299 212.889 91.304 213.065 92.7339L211.817 92.949Z" fill="#263238"/>
<path d="M212.911 89.9925C213.047 90.2057 213.114 90.4554 213.102 90.7078C213.091 90.9601 213.002 91.2028 212.848 91.4029C212.693 91.6029 212.481 91.7506 212.24 91.8258C211.999 91.9009 211.74 91.9 211.5 91.8231C211.259 91.7462 211.048 91.597 210.895 91.3959C210.742 91.1947 210.655 90.9514 210.646 90.699C210.636 90.4465 210.704 90.1973 210.841 89.9851C210.978 89.7729 211.178 89.6081 211.412 89.5131C211.674 89.3792 211.979 89.3545 212.26 89.4442C212.541 89.534 212.775 89.7311 212.911 89.9925Z" fill="#263238"/>
<path d="M200.802 94.455L201.657 95.3156L207.41 92.8569L205.136 92.0701L200.802 94.455Z" fill="#E58A7B"/>
<path opacity="0.2" d="M225.506 206.805C225.543 206.805 226.379 209.153 226.379 209.153L217.872 212.731L216.532 210.235L225.506 206.805Z" fill="black"/>
<path opacity="0.2" d="M242.895 209.786C242.932 209.786 243.178 212.153 243.178 212.153H233.86L233.196 209.436L242.895 209.786Z" fill="black"/>
<path d="M241.457 64.5757C243.147 70.0278 236.54 77.4838 236.54 77.4838L227.412 73.7589C228.494 70.6076 229.741 67.5156 231.149 64.4958C233.952 58.4535 239.748 59.0743 241.457 64.5757Z" fill="#4CAF4F"/>
<path opacity="0.2" d="M241.457 64.5757C243.147 70.0278 236.54 77.4838 236.54 77.4838L227.412 73.7589C228.494 70.6076 229.741 67.5156 231.149 64.4958C233.952 58.4535 239.748 59.0743 241.457 64.5757Z" fill="black"/>
<path d="M150.756 9.94946H146.828V10.5826H150.756V9.94946Z" fill="#4CAF4F"/>
<path d="M201.6 35.0077L201.125 45.5571L201.758 45.5856L202.233 35.0362L201.6 35.0077Z" fill="#4CAF4F"/>
<path d="M200.378 12.7893H127.847L121.098 163.827H193.629L200.378 12.7893Z" fill="#4CAF4F"/>
<path opacity="0.56" d="M198.215 14.8669H125.683L118.934 165.905H191.466L198.215 14.8669Z" fill="#FAFAFA"/>
<path opacity="0.07" d="M196.051 16.9382H123.519L116.764 167.976H189.296L196.051 16.9382Z" fill="#4CAF4F"/>
<path d="M187.796 82.813H125.886L125.37 94.3689H187.28L187.796 82.813Z" fill="white"/>
<path d="M159.933 74.3796H126.261L126.033 79.5491H159.705L159.933 74.3796Z" fill="#4CAF4F"/>
<path d="M186.401 114.002H124.491L123.974 125.558H185.884L186.401 114.002Z" fill="white"/>
<path opacity="0.47" d="M175.048 141.164H133.416L132.795 155.013H174.427L175.048 141.164Z" fill="#4CAF4F"/>
<path d="M172.263 157.164H130.631C130.613 157.169 130.594 157.169 130.576 157.164C130.57 157.146 130.57 157.127 130.576 157.109L131.191 143.254C131.19 143.245 131.192 143.235 131.196 143.227C131.2 143.218 131.206 143.21 131.212 143.204C131.219 143.198 131.228 143.193 131.237 143.19C131.245 143.187 131.255 143.186 131.264 143.186H172.896C172.904 143.183 172.912 143.181 172.921 143.181C172.929 143.181 172.938 143.183 172.945 143.186C172.95 143.194 172.952 143.202 172.952 143.211C172.952 143.22 172.95 143.228 172.945 143.236L172.343 157.121C172.336 157.136 172.324 157.147 172.31 157.155C172.295 157.163 172.279 157.166 172.263 157.164ZM130.705 157.017H172.189L172.804 143.309H131.32L130.705 157.017Z" fill="white"/>
<path d="M152.661 105.568H124.866L124.638 110.744H152.428L152.661 105.568Z" fill="#4CAF4F"/>
<path d="M174.255 45.4837C174.096 48.8469 172.9 52.0783 170.831 54.7346C169.299 56.741 167.329 58.3698 165.07 59.4961C162.811 60.6223 160.324 61.2161 157.8 61.2317C155.76 61.2473 153.739 60.8451 151.86 60.0499C149.982 59.2547 148.286 58.0833 146.878 56.608C145.469 55.1327 144.378 53.3846 143.67 51.4714C142.963 49.5582 142.655 47.5205 142.765 45.4837C142.981 41.2572 144.804 37.273 147.86 34.3457C150.916 31.4185 154.976 29.7694 159.207 29.7358C161.249 29.7167 163.272 30.1165 165.153 30.9103C167.033 31.7041 168.731 32.8751 170.142 34.351C171.552 35.8269 172.644 37.5763 173.352 39.4911C174.059 41.4059 174.367 43.4455 174.255 45.4837Z" fill="white"/>
<path d="M175.736 33.0305C175.696 33.9248 175.378 34.7843 174.826 35.4892C174.418 36.0221 173.894 36.4548 173.293 36.7541C172.692 37.0534 172.031 37.2116 171.36 37.2165C170.709 37.2204 170.068 37.0651 169.491 36.764C168.915 36.4629 168.421 36.0252 168.053 35.4892C167.565 34.7649 167.323 33.9028 167.364 33.0305C167.424 31.9084 167.909 30.8512 168.721 30.0745C169.533 29.2978 170.611 28.8601 171.735 28.8508C172.277 28.8458 172.814 28.9519 173.313 29.1625C173.813 29.3732 174.264 29.6838 174.639 30.0754C175.014 30.467 175.305 30.9312 175.493 31.4395C175.682 31.9477 175.765 32.4892 175.736 33.0305Z" fill="#4CAF4F"/>
<path d="M132.555 88.5909C132.526 89.0862 132.309 89.5519 131.95 89.8941C131.591 90.2363 131.115 90.4296 130.619 90.4349C130.379 90.4378 130.142 90.3915 129.921 90.2989C129.7 90.2062 129.5 90.0693 129.334 89.8964C129.168 89.7236 129.04 89.5186 128.956 89.294C128.873 89.0695 128.836 88.8302 128.849 88.5909C128.875 88.0946 129.091 87.6272 129.451 87.2844C129.81 86.9416 130.288 86.7493 130.785 86.7469C131.024 86.7449 131.261 86.7919 131.482 86.8848C131.702 86.9777 131.902 87.1147 132.067 87.2874C132.233 87.46 132.362 87.6647 132.446 87.8888C132.53 88.113 132.567 88.3519 132.555 88.5909Z" fill="#263238"/>
<path d="M140.841 88.591C140.813 89.0868 140.597 89.5533 140.237 89.8958C139.878 90.2383 139.401 90.4311 138.905 90.435C138.666 90.437 138.429 90.3901 138.208 90.2971C137.988 90.2041 137.789 90.067 137.624 89.8942C137.459 89.7215 137.331 89.5168 137.248 89.2926C137.164 89.0685 137.128 88.8297 137.141 88.591C137.167 88.0957 137.382 87.6292 137.74 87.2865C138.099 86.9439 138.575 86.7509 139.071 86.747C139.31 86.7441 139.548 86.7904 139.769 86.883C139.99 86.9757 140.189 87.1126 140.355 87.2855C140.521 87.4583 140.65 87.6633 140.733 87.8879C140.817 88.1124 140.854 88.3517 140.841 88.591Z" fill="#263238"/>
<path d="M149.133 88.591C149.105 89.0868 148.889 89.5533 148.529 89.8958C148.17 90.2383 147.693 90.4311 147.197 90.435C146.957 90.437 146.72 90.39 146.5 90.2971C146.279 90.2042 146.08 90.0672 145.914 89.8945C145.748 89.7219 145.62 89.5172 145.536 89.2931C145.452 89.0689 145.415 88.83 145.426 88.591C145.454 88.0951 145.67 87.6286 146.03 87.2861C146.39 86.9436 146.866 86.7508 147.363 86.747C147.602 86.7441 147.84 86.7904 148.061 86.883C148.282 86.9757 148.481 87.1126 148.647 87.2855C148.813 87.4583 148.942 87.6633 149.025 87.8879C149.109 88.1124 149.146 88.3517 149.133 88.591Z" fill="#263238"/>
<path d="M131.16 119.78C131.13 120.275 130.914 120.741 130.555 121.083C130.195 121.425 129.72 121.618 129.224 121.624C128.984 121.626 128.747 121.579 128.526 121.486C128.306 121.393 128.107 121.256 127.941 121.083C127.775 120.911 127.646 120.706 127.563 120.482C127.479 120.258 127.442 120.019 127.453 119.78C127.481 119.284 127.697 118.817 128.057 118.475C128.416 118.132 128.893 117.939 129.39 117.936C129.629 117.934 129.866 117.981 130.087 118.073C130.307 118.166 130.506 118.303 130.672 118.476C130.838 118.649 130.967 118.853 131.05 119.078C131.134 119.302 131.171 119.541 131.16 119.78Z" fill="#263238"/>
<path d="M139.446 119.78C139.418 120.274 139.203 120.74 138.844 121.082C138.486 121.425 138.011 121.618 137.516 121.624C137.276 121.627 137.038 121.58 136.817 121.488C136.596 121.395 136.397 121.258 136.231 121.085C136.065 120.912 135.936 120.707 135.853 120.483C135.769 120.258 135.733 120.019 135.745 119.78C135.773 119.284 135.989 118.817 136.349 118.475C136.708 118.132 137.185 117.939 137.681 117.936C137.921 117.934 138.157 117.981 138.378 118.074C138.598 118.167 138.797 118.304 138.962 118.476C139.127 118.649 139.255 118.854 139.339 119.078C139.422 119.302 139.458 119.541 139.446 119.78Z" fill="#263238"/>
<path d="M147.756 119.78C147.728 120.276 147.512 120.742 147.153 121.085C146.793 121.427 146.316 121.62 145.82 121.624C145.581 121.625 145.344 121.577 145.124 121.484C144.904 121.391 144.705 121.254 144.539 121.081C144.374 120.909 144.245 120.705 144.161 120.481C144.077 120.257 144.039 120.019 144.05 119.78C144.079 119.284 144.295 118.819 144.655 118.476C145.014 118.134 145.49 117.941 145.986 117.936C146.225 117.933 146.463 117.979 146.684 118.072C146.905 118.164 147.104 118.301 147.27 118.474C147.436 118.647 147.565 118.852 147.649 119.077C147.732 119.301 147.769 119.54 147.756 119.78Z" fill="#263238"/>
<path d="M156.03 119.78C156 120.275 155.784 120.741 155.425 121.083C155.065 121.425 154.59 121.618 154.093 121.624C153.854 121.625 153.617 121.577 153.397 121.484C153.177 121.391 152.978 121.254 152.813 121.081C152.647 120.909 152.518 120.704 152.434 120.481C152.35 120.257 152.312 120.018 152.323 119.78C152.353 119.284 152.569 118.819 152.928 118.476C153.287 118.134 153.763 117.941 154.259 117.936C154.499 117.934 154.736 117.981 154.956 118.073C155.177 118.166 155.376 118.303 155.542 118.476C155.708 118.649 155.836 118.853 155.92 119.078C156.004 119.302 156.041 119.541 156.03 119.78Z" fill="#263238"/>
<path d="M164.352 119.78C164.323 120.275 164.107 120.741 163.747 121.083C163.388 121.425 162.912 121.618 162.416 121.624C162.176 121.627 161.939 121.58 161.718 121.488C161.497 121.395 161.297 121.258 161.131 121.085C160.965 120.912 160.837 120.707 160.753 120.483C160.67 120.258 160.633 120.019 160.646 119.78C160.674 119.284 160.89 118.817 161.249 118.475C161.609 118.132 162.085 117.939 162.582 117.936C162.821 117.934 163.059 117.981 163.279 118.073C163.5 118.166 163.699 118.303 163.865 118.476C164.03 118.649 164.159 118.853 164.243 119.078C164.327 119.302 164.364 119.541 164.352 119.78Z" fill="#263238"/>
<path d="M163.094 44.6636C165.667 42.1477 165.804 38.115 163.399 35.6564C160.995 33.1977 156.96 33.2441 154.387 35.76C151.815 38.2759 151.678 42.3086 154.082 44.7672C156.487 47.2259 160.522 47.1795 163.094 44.6636Z" fill="#4CAF4F"/>
<path d="M170.831 54.7348C169.299 56.7412 167.329 58.37 165.07 59.4963C162.811 60.6225 160.324 61.2163 157.8 61.2319C155.352 61.2527 152.937 60.6709 150.768 59.5378C148.598 58.4048 146.74 56.7553 145.359 54.7348C148.346 51.7598 153.073 49.8174 158.31 49.8174C163.547 49.8174 168.108 51.7598 170.831 54.7348Z" fill="#4CAF4F"/>
<path opacity="0.1" d="M163.094 44.6636C165.667 42.1477 165.804 38.115 163.399 35.6564C160.995 33.1977 156.96 33.2441 154.387 35.76C151.815 38.2759 151.678 42.3086 154.082 44.7672C156.487 47.2259 160.522 47.1795 163.094 44.6636Z" fill="white"/>
<path opacity="0.1" d="M170.831 54.7348C169.299 56.7412 167.329 58.37 165.07 59.4963C162.811 60.6225 160.324 61.2163 157.8 61.2319C155.352 61.2527 152.937 60.6709 150.768 59.5378C148.598 58.4048 146.74 56.7553 145.359 54.7348C148.346 51.7598 153.073 49.8174 158.31 49.8174C163.547 49.8174 168.108 51.7598 170.831 54.7348Z" fill="white"/>
<path d="M80.3938 97.1535C79.8098 98.432 79.1951 99.8396 78.6604 101.204C78.1256 102.569 77.5785 103.976 77.1052 105.378C76.1389 108.14 75.4028 110.977 74.9047 113.86L74.7695 114.764C74.7566 114.919 74.7711 115.075 74.8125 115.225C74.9576 115.734 75.186 116.216 75.4886 116.651C76.278 117.776 77.1937 118.807 78.2178 119.724C79.2975 120.729 80.4301 121.675 81.6108 122.558C82.791 123.468 84.0326 124.353 85.2558 125.189L84.1064 127.346C81.1856 126.074 78.4132 124.484 75.839 122.607C74.4657 121.606 73.2262 120.432 72.151 119.116C71.5136 118.332 71.0166 117.444 70.6819 116.491C70.4873 115.896 70.3877 115.273 70.3868 114.647C70.3868 114.5 70.3868 114.284 70.3868 114.18V113.879L70.4483 113.264C70.8007 110.062 71.4741 106.903 72.4583 103.835C72.9377 102.323 73.4479 100.817 74.0319 99.3478C74.6158 97.8788 75.2182 96.4404 75.9619 94.9468L80.3938 97.1535Z" fill="#E58A7B"/>
<path d="M84.3891 124.808L88.7349 122.607L87.61 127.377C87.61 127.377 84.6288 128.213 83.2458 126.762L84.3891 124.808Z" fill="#E58A7B"/>
<path d="M92.7119 123.388L91.5563 127.334L87.61 127.377L88.7349 122.607L92.7119 123.388Z" fill="#E58A7B"/>
<path d="M98.8463 74.1399C99.0787 74.9917 99.4023 75.8161 99.8113 76.5986C99.6918 76.7341 99.5379 76.8348 99.3659 76.89C99.1938 76.9452 99.01 76.9528 98.834 76.9121L98.8463 74.1399Z" fill="#DF5753"/>
<path d="M98.7172 74.1769C98.9718 74.1769 99.1782 73.8605 99.1782 73.4701C99.1782 73.0797 98.9718 72.7632 98.7172 72.7632C98.4626 72.7632 98.2562 73.0797 98.2562 73.4701C98.2562 73.8605 98.4626 74.1769 98.7172 74.1769Z" fill="#263238"/>
<path d="M98.582 72.7878L99.5163 72.5234C99.5163 72.5234 99.0614 73.2488 98.582 72.7878Z" fill="#263238"/>
<path d="M86.8417 78.6516C87.4011 81.5099 87.9604 86.753 85.9566 88.6647C85.9566 88.6647 86.7434 91.5659 92.0603 91.5659C97.9059 91.5659 94.8509 88.6647 94.8509 88.6647C91.6607 87.9025 91.7407 85.536 92.3 83.3108L86.8417 78.6516Z" fill="#E58A7B"/>
<path d="M85.2866 72.1361C85.5816 76.9121 85.6062 78.9406 88.0157 81.3931C91.6484 85.0812 97.451 83.6797 98.5881 78.9344C99.6146 74.6317 98.9631 67.5506 94.2854 65.6513C93.2586 65.2283 92.1409 65.0742 91.038 65.2037C89.9351 65.3331 88.8834 65.7418 87.9825 66.391C87.0816 67.0403 86.3612 67.9086 85.8894 68.9139C85.4177 69.9192 85.2102 71.0282 85.2866 72.1361Z" fill="#E58A7B"/>
<path d="M85.7598 66.764C83.3626 67.6368 80.1663 66.9852 81.4202 74.3798C82.7479 82.2108 80.7072 84.7862 80.7072 84.7862C80.7072 84.7862 89.7983 86.7225 99.0799 84.6695C99.0799 84.6695 96.2462 79.7152 97.0391 76.064C98.0534 71.4539 97.2543 69.7513 97.2543 69.7513C97.2543 69.7513 89.1283 65.5346 85.7598 66.764Z" fill="#263238"/>
<path d="M95.902 74.6256C95.9045 75.5337 96.1645 76.4225 96.6519 77.1888C97.3035 78.1846 98.0718 77.8035 98.2624 76.7462C98.4345 75.8181 98.3054 74.1769 97.4756 73.5376C96.6458 72.8984 95.9143 73.5253 95.902 74.6256Z" fill="#E58A7B"/>
<path d="M83.6761 67.5691C82.9877 65.6329 86.27 62.6517 93.2159 63.8811C100.162 65.1104 100.463 70.8945 100.463 70.8945L99.0614 69.2226L99.1229 70.9806L91.9865 72.3513L83.6761 67.5691Z" fill="#263238"/>
<path d="M84.2662 88.9906C84.2252 88.71 84.2954 88.4244 84.4619 88.1948C84.6284 87.9651 84.878 87.8096 85.1575 87.7613C87.3212 87.4048 92.2386 86.6795 94.7095 87.0237C96.5536 87.2819 97.033 88.3514 97.1129 89.2304C97.1254 89.3843 97.1049 89.5391 97.0526 89.6844C97.0003 89.8297 96.9175 89.9621 96.8098 90.0727C96.702 90.1834 96.5719 90.2697 96.428 90.3258C96.2842 90.382 96.13 90.4067 95.9758 90.3982L85.2927 89.9188C85.0409 89.9061 84.8011 89.8068 84.6141 89.6376C84.427 89.4685 84.3042 89.24 84.2662 88.9906Z" fill="#4CAF4F"/>
<path opacity="0.6" d="M84.2662 88.9906C84.2252 88.71 84.2954 88.4244 84.4619 88.1948C84.6284 87.9651 84.878 87.8096 85.1575 87.7613C87.3212 87.4048 92.2386 86.6795 94.7095 87.0237C96.5536 87.2819 97.033 88.3514 97.1129 89.2304C97.1254 89.3843 97.1049 89.5391 97.0526 89.6844C97.0003 89.8297 96.9175 89.9621 96.8098 90.0727C96.702 90.1834 96.5719 90.2697 96.428 90.3258C96.2842 90.382 96.13 90.4067 95.9758 90.3982L85.2927 89.9188C85.0409 89.9061 84.8011 89.8068 84.6141 89.6376C84.427 89.4685 84.3042 89.24 84.2662 88.9906Z" fill="black"/>
<path d="M90.4437 196.374L94.4083 199.128L101.041 190.135L97.076 187.388L90.4437 196.374Z" fill="#E58A7B"/>
<path d="M81.199 196.196L85.3849 198.581L91.2551 189.072L87.0691 186.687L81.199 196.196Z" fill="#E58A7B"/>
<path d="M101.035 190.135L97.6169 194.77L93.6523 192.022L97.0699 187.388L101.035 190.135Z" fill="#CF6F64"/>
<path d="M87.063 186.687L91.255 189.078L88.2308 193.977L84.0388 191.586L87.063 186.687Z" fill="#CF6F64"/>
<path d="M93.7875 119.011C93.7875 119.011 109.265 138.515 106.358 157.17C104.016 172.236 90.4314 192.637 90.4314 192.637L84.0449 189.465C88.5465 180.445 92.388 171.11 95.5393 161.534C96.5111 158.561 96.7948 155.407 96.3688 152.308C95.9429 149.209 94.8185 146.248 93.0806 143.647C85.2374 132.196 72.6734 139.013 81.1252 119.011H93.7875Z" fill="#4CAF4F"/>
<path opacity="0.6" d="M93.7875 119.011C93.7875 119.011 109.265 138.515 106.358 157.17C104.016 172.236 90.4314 192.637 90.4314 192.637L84.0449 189.465C88.5465 180.445 92.388 171.11 95.5393 161.534C96.5111 158.561 96.7948 155.407 96.3688 152.308C95.9429 149.209 94.8185 146.248 93.0806 143.647C85.2374 132.196 72.6734 139.013 81.1252 119.011H93.7875Z" fill="black"/>
<path opacity="0.4" d="M101.379 131.538L99.129 129.301C99.129 129.479 103.487 156.384 104.71 163.944C105.432 161.736 105.985 159.475 106.364 157.183C107.802 148.03 104.796 138.681 101.379 131.538Z" fill="black"/>
<path d="M100.696 119.011C100.696 119.011 119.333 143.524 119.862 158.221C120.298 170.515 99.5778 194.334 99.5778 194.334L93.5539 190.436C93.5539 190.436 105.681 173.521 108.736 159.703C107.556 146.008 82.6004 119.011 82.6004 119.011H100.696Z" fill="#4CAF4F"/>
<path opacity="0.6" d="M100.696 119.011C100.696 119.011 119.333 143.524 119.862 158.221C120.298 170.515 99.5778 194.334 99.5778 194.334L93.5539 190.436C93.5539 190.436 105.681 173.521 108.736 159.703C107.556 146.008 82.6004 119.011 82.6004 119.011H100.696Z" fill="black"/>
<path d="M77.64 89.7589C75.6485 90.2322 73.7368 97.4731 73.7368 97.4731L81.5247 102.673C81.5247 102.673 84.1187 96.9444 83.209 94.4366C82.2685 91.8242 80.1417 89.1627 77.64 89.7589Z" fill="#4CAF4F"/>
<path opacity="0.2" d="M79.1644 94.4243L78.6235 100.737L81.5186 102.679C82.318 100.88 82.9098 98.9949 83.2827 97.0613L79.1644 94.4243Z" fill="black"/>
<path d="M103.001 89.9003C103.001 89.9003 105.3 90.7056 100.696 119.005H81.1129C81.4448 111.014 81.451 106.097 77.64 89.759C80.3821 89.1939 83.1616 88.8282 85.9565 88.6649C88.9175 88.4525 91.8899 88.4525 94.8509 88.6649C98.6742 89.0152 103.001 89.9003 103.001 89.9003Z" fill="#4CAF4F"/>
<path d="M104.993 94.4244C105.436 95.6537 105.903 96.9753 106.394 98.2476C106.886 99.52 107.353 100.829 107.851 102.12L109.357 105.98L109.738 106.945L109.935 107.425L110.027 107.664C110.027 107.707 110.027 107.707 110.027 107.701C109.915 107.543 109.768 107.413 109.597 107.32C109.354 107.177 109.08 107.095 108.798 107.081C108.564 107.073 108.331 107.117 108.116 107.21C107.833 107.339 107.833 107.394 107.839 107.388C107.89 107.347 107.936 107.299 107.974 107.246C108.314 106.8 108.609 106.32 108.853 105.814C109.142 105.249 109.419 104.646 109.695 104.038C110.236 102.809 110.734 101.536 111.232 100.251C111.73 98.9668 112.203 97.6698 112.664 96.3606L114.066 92.439L116.432 93.0536C115.965 95.8566 115.363 98.5857 114.637 101.364C114.287 102.747 113.875 104.118 113.408 105.501C113.174 106.195 112.916 106.884 112.621 107.591C112.314 108.358 111.935 109.095 111.49 109.791C111.327 110.026 111.146 110.248 110.949 110.455C110.635 110.794 110.254 111.064 109.831 111.248C109.454 111.409 109.047 111.485 108.638 111.469C108.18 111.452 107.734 111.319 107.341 111.082C106.878 110.793 106.494 110.394 106.222 109.92C106.13 109.761 106.05 109.601 105.995 109.484L105.878 109.25L105.645 108.771L105.177 107.818C104.563 106.54 103.948 105.249 103.413 103.952C102.879 102.655 102.313 101.339 101.784 100.018C101.256 98.6964 100.783 97.3748 100.334 95.9488L104.993 94.4244Z" fill="#E58A7B"/>
<path d="M103.001 89.9002C105.356 90.4596 108.005 97.4177 108.005 97.4177L101.004 103.374C101.004 103.374 96.4736 95.7888 97.3895 93.2871C98.3423 90.6809 99.9281 89.1688 103.001 89.9002Z" fill="#4CAF4F"/>
<path d="M115.178 90.2383L117.637 88.1853L119.346 90.8468L118.086 93.0658C118.086 93.0658 116.082 94.9098 114.312 93.9694C114.031 93.3378 113.963 92.6319 114.12 91.9586C114.276 91.2853 114.648 90.6813 115.178 90.2383Z" fill="#E58A7B"/>
<path d="M122.075 88.1914L121.89 88.8614L118 89.513L117.618 88.1853L122.075 88.1914Z" fill="#E58A7B"/>
<path d="M100.057 194.647L93.0376 190.111L94.2977 187.923L102.184 192.772L100.057 194.647Z" fill="#4CAF4F"/>
<path d="M88.1325 198.261C87.5166 198.186 86.9248 197.976 86.3991 197.647C86.3774 197.639 86.3586 197.625 86.3453 197.606C86.332 197.588 86.3249 197.565 86.3249 197.542C86.3249 197.519 86.332 197.497 86.3453 197.478C86.3586 197.459 86.3774 197.445 86.3991 197.438C86.5897 197.376 88.2432 196.866 88.7226 197.259C88.7765 197.304 88.8174 197.363 88.8412 197.429C88.865 197.494 88.8707 197.566 88.8578 197.634C88.8493 197.745 88.8126 197.852 88.7513 197.944C88.69 198.037 88.6061 198.112 88.5075 198.163C88.3924 198.226 88.2636 198.26 88.1325 198.261ZM86.7495 197.585C87.5178 197.979 88.1325 198.12 88.4276 197.973C88.4918 197.937 88.5459 197.885 88.5846 197.823C88.6233 197.761 88.6455 197.689 88.6488 197.616C88.6488 197.518 88.6488 197.475 88.5935 197.45C88.3354 197.241 87.4133 197.401 86.7372 197.585H86.7495Z" fill="#263238"/>
<path d="M86.4422 197.69C86.4097 197.689 86.3788 197.676 86.3561 197.653C86.347 197.636 86.3422 197.617 86.3422 197.597C86.3422 197.578 86.347 197.559 86.3561 197.542C86.3561 197.487 86.7556 196.153 87.3826 195.852C87.4627 195.815 87.5497 195.796 87.6377 195.796C87.7257 195.796 87.8127 195.815 87.8928 195.852C87.9791 195.879 88.0538 195.934 88.1051 196.009C88.1563 196.084 88.1811 196.173 88.1755 196.264C88.1325 196.817 87.0077 197.579 86.4913 197.708L86.4422 197.69ZM87.6346 196.012C87.5748 196.013 87.5161 196.028 87.4625 196.055C87.0814 196.239 86.7679 196.958 86.6143 197.395C87.1552 197.167 87.8989 196.565 87.9235 196.227C87.9235 196.171 87.9235 196.104 87.7821 196.042C87.7362 196.018 87.6863 196.001 87.6346 195.993V196.012Z" fill="#263238"/>
<path d="M96.9039 200.917C96.2093 200.917 95.2443 200.025 94.7157 199.478C94.7022 199.46 94.6949 199.437 94.6949 199.414C94.6949 199.391 94.7022 199.368 94.7157 199.349C94.7278 199.329 94.7451 199.313 94.7656 199.302C94.7862 199.292 94.8093 199.287 94.8325 199.288C95.0783 199.288 97.2113 199.607 97.5125 200.21C97.5444 200.264 97.5612 200.325 97.5612 200.388C97.5612 200.451 97.5444 200.512 97.5125 200.566C97.4673 200.66 97.399 200.741 97.3141 200.801C97.2292 200.861 97.1303 200.899 97.0269 200.911L96.9039 200.917ZM95.1214 199.564C95.8959 200.314 96.5781 200.732 96.9654 200.683C97.0332 200.674 97.0978 200.649 97.1536 200.609C97.2093 200.57 97.2544 200.517 97.285 200.456C97.2988 200.435 97.3061 200.41 97.3061 200.385C97.3061 200.36 97.2988 200.335 97.285 200.314C97.1252 199.982 95.9881 199.7 95.1214 199.564Z" fill="#263238"/>
<path d="M95.189 199.534C95.051 199.538 94.913 199.527 94.7771 199.503C94.7582 199.5 94.7403 199.492 94.7252 199.48C94.7101 199.469 94.6983 199.453 94.6911 199.435C94.6819 199.417 94.6771 199.397 94.6771 199.377C94.6771 199.357 94.6819 199.337 94.6911 199.319C94.728 199.275 95.5578 198.274 96.3446 198.206C96.5673 198.189 96.7879 198.259 96.9592 198.403C97.199 198.612 97.1867 198.796 97.1252 198.913C96.9715 199.331 95.9081 199.534 95.189 199.534ZM95.0292 199.306C95.7176 199.343 96.8179 199.116 96.9592 198.814C96.9592 198.814 97.0084 198.716 96.8486 198.581C96.785 198.526 96.7107 198.484 96.6304 198.459C96.55 198.433 96.4653 198.425 96.3814 198.433C95.8515 198.581 95.3795 198.888 95.0292 199.312V199.306Z" fill="#263238"/>
<path d="M86.6081 197.026L81.3956 195.551C81.3058 195.523 81.2091 195.53 81.124 195.57C81.0389 195.61 80.9715 195.679 80.9346 195.766L79.1767 199.718C79.1354 199.819 79.116 199.928 79.1198 200.037C79.1236 200.147 79.1504 200.254 79.1986 200.352C79.2468 200.45 79.3152 200.537 79.3994 200.607C79.4835 200.676 79.5815 200.728 79.6868 200.757C81.5309 201.236 82.416 201.372 84.7087 202.029C86.1225 202.423 88.1386 203.154 90.0871 203.707C92.0357 204.261 92.6872 202.361 91.9312 201.955C88.5136 200.148 88.2431 198.882 87.3088 197.53C87.1415 197.285 86.8935 197.107 86.6081 197.026Z" fill="#4CAF4F"/>
<path d="M94.857 198.759L90.4068 195.686C90.3313 195.631 90.2383 195.606 90.1454 195.615C90.0525 195.624 89.9662 195.667 89.9028 195.735L86.9523 198.907C86.8804 198.989 86.8268 199.085 86.795 199.189C86.7632 199.294 86.754 199.404 86.7679 199.512C86.7819 199.62 86.8187 199.724 86.8759 199.817C86.9332 199.909 87.0095 199.989 87.0998 200.05C88.6673 201.101 89.4786 201.525 91.4395 202.884C92.6688 203.72 95.0476 205.576 96.7072 206.732C98.3668 207.887 99.6023 206.301 99.0122 205.674C96.3691 202.853 95.7913 201.083 95.3549 199.478C95.2792 199.187 95.1028 198.933 94.857 198.759Z" fill="#4CAF4F"/>
<path d="M91.2489 193.043L83.2274 189.053L84.0572 186.877L92.6258 191.082L91.2489 193.043Z" fill="#4CAF4F"/>
<path d="M80.8179 117.856L80.1417 119.626C80.0741 119.761 80.2339 119.902 80.4613 119.902H100.795C100.973 119.902 101.121 119.816 101.133 119.706L101.305 117.948C101.305 117.831 101.164 117.727 100.973 117.727H81.1375C81.0778 117.721 81.0176 117.73 80.962 117.752C80.9063 117.775 80.8569 117.81 80.8179 117.856Z" fill="#4CAF4F"/>
<path opacity="0.4" d="M80.8179 117.856L80.1417 119.626C80.0741 119.761 80.2339 119.902 80.4613 119.902H100.795C100.973 119.902 101.121 119.816 101.133 119.706L101.305 117.948C101.305 117.831 101.164 117.727 100.973 117.727H81.1375C81.0778 117.721 81.0176 117.73 80.962 117.752C80.9063 117.775 80.8569 117.81 80.8179 117.856Z" fill="white"/>
<path d="M84.0203 120.075H83.4856C83.3811 120.075 83.3012 120.019 83.3073 119.952L83.5593 117.671C83.5593 117.61 83.6577 117.554 83.7622 117.554H84.2969C84.4014 117.554 84.4813 117.61 84.4752 117.671L84.2232 119.952C84.217 120.019 84.1248 120.075 84.0203 120.075Z" fill="#4CAF4F"/>
<path d="M96.5597 120.075H96.0311C95.9266 120.075 95.8467 120.019 95.8528 119.952L96.0987 117.671C96.0987 117.61 96.2032 117.554 96.3077 117.554H96.8363C96.9408 117.554 97.0268 117.61 97.0145 117.671L96.7687 119.952C96.7379 120.019 96.6703 120.075 96.5597 120.075Z" fill="#4CAF4F"/>
<g style="mix-blend-mode:multiply">
<path d="M83.5532 224.17C92.6477 224.17 100.02 223.636 100.02 222.977C100.02 222.319 92.6477 221.785 83.5532 221.785C74.4586 221.785 67.086 222.319 67.086 222.977C67.086 223.636 74.4586 224.17 83.5532 224.17Z" fill="#F5F5F5"/>
</g>
<path d="M93.5847 221.293C90.6711 220.445 87.4379 219.357 85.4832 218.22C85.4279 218.183 85.3665 218.165 85.3111 218.134V204.943H91.2059C91.6533 204.916 92.0738 204.72 92.3812 204.394C92.6887 204.068 92.8599 203.636 92.8599 203.188C92.8599 202.74 92.6887 202.308 92.3812 201.982C92.0738 201.656 91.6533 201.46 91.2059 201.433H85.3419V141.306H81.8013V201.433H75.9435C75.7043 201.419 75.4647 201.454 75.2395 201.536C75.0143 201.617 74.8082 201.744 74.6338 201.909C74.4594 202.073 74.3205 202.271 74.2255 202.491C74.1306 202.711 74.0816 202.948 74.0816 203.188C74.0816 203.428 74.1306 203.665 74.2255 203.885C74.3205 204.105 74.4594 204.303 74.6338 204.467C74.8082 204.632 75.0143 204.759 75.2395 204.84C75.4647 204.922 75.7043 204.957 75.9435 204.943H81.8013V218.115C81.746 218.115 81.6907 218.165 81.6354 218.202C79.65 219.357 76.4414 220.445 73.5278 221.275C73.331 221.334 73.162 221.462 73.0514 221.636C72.9408 221.809 72.8959 222.016 72.9249 222.22C72.9539 222.423 73.0548 222.61 73.2094 222.745C73.3639 222.881 73.5619 222.957 73.7675 222.959H93.3449C93.5414 222.946 93.7273 222.865 93.8717 222.731C94.0161 222.597 94.1101 222.418 94.1382 222.223C94.1662 222.028 94.1266 221.83 94.0258 221.66C93.9251 221.491 93.7694 221.362 93.5847 221.293Z" fill="#E0E0E0"/>
<path d="M94.4882 135.183H72.6304C70.8719 135.183 69.4464 136.609 69.4464 138.367V144.864C69.4464 146.623 70.8719 148.048 72.6304 148.048H94.4882C96.2467 148.048 97.6723 146.623 97.6723 144.864V138.367C97.6723 136.609 96.2467 135.183 94.4882 135.183Z" fill="#4CAF4F"/>
<path d="M72.4276 148.055V149.173C72.4276 150.095 73.4295 150.845 74.6588 150.845H92.4844C93.7138 150.845 94.7157 150.095 94.7157 149.173V148.055H72.4276Z" fill="#4CAF4F"/>
<path opacity="0.3" d="M72.4276 148.055V149.173C72.4276 150.095 73.4295 150.845 74.6588 150.845H92.4844C93.7138 150.845 94.7157 150.095 94.7157 149.173V148.055H72.4276Z" fill="white"/>
</svg>
