<svg width="308" height="303" viewBox="0 0 308 303" fill="none" xmlns="http://www.w3.org/2000/svg">
<path d="M262.213 301.833C262.213 301.933 212.257 302.02 150.655 302.02C89.0519 302.02 39.0747 301.933 39.0747 301.833C39.0747 301.732 89.0231 301.646 150.655 301.646C212.286 301.646 262.213 301.739 262.213 301.833Z" fill="#263238"/>
<path d="M213.538 213.763C202.423 206 199.905 191.591 200.344 178.634C200.416 176.476 200.179 174.188 201.207 172.296C202.236 170.404 204.639 169.102 206.574 170.008C208.178 170.764 208.876 172.634 209.775 174.181C210.975 176.241 212.734 177.92 214.847 179.023C216.221 179.742 217.926 180.174 219.286 179.425C221.156 178.397 221.372 175.828 221.358 173.67C221.358 169.656 221.334 165.646 221.286 161.642C221.157 159.491 221.375 157.334 221.933 155.253C222.602 153.21 224.092 151.318 226.128 150.743C228.163 150.167 230.703 151.354 231.163 153.455C231.243 154.345 231.264 155.239 231.228 156.131C231.286 157.03 231.703 158.016 232.545 158.289C233.386 158.563 234.264 157.937 234.912 157.304C237.127 155.145 238.638 152.333 240.041 149.556C241.444 146.779 242.818 143.923 244.832 141.556C246.846 139.189 249.631 137.311 252.746 137.132C255.861 136.952 259.105 138.865 259.882 141.887C260.659 144.908 258.897 147.995 257.004 150.448C254.149 154.089 250.784 157.3 247.012 159.98C246.276 160.382 245.688 161.01 245.336 161.771C244.868 163.21 246.228 164.649 247.645 165.102C249.249 165.634 250.99 165.469 252.681 165.67C254.371 165.872 256.17 166.606 256.81 168.188C257.688 170.39 255.846 172.692 254.041 174.203C250.415 177.224 246.298 179.601 241.868 181.231C240.285 181.807 238.624 182.317 237.343 183.425C236.063 184.533 235.3 186.468 236.07 187.986C236.84 189.504 238.818 189.986 240.48 189.677C242.142 189.368 243.616 188.476 245.199 187.878C248.156 186.763 251.969 186.965 253.832 189.519C254.409 190.398 254.775 191.4 254.899 192.445C255.024 193.49 254.905 194.549 254.551 195.54C253.831 197.512 252.723 199.32 251.292 200.857C246.581 206.486 240.458 210.764 233.552 213.252C226.696 215.626 220.344 216.273 213.531 213.777" fill="#4CAF4F"/>
<path d="M256.717 138.908C256.717 138.908 256.652 138.98 256.508 139.11L255.868 139.678C255.307 140.182 254.479 140.916 253.436 141.887C250.479 144.633 247.732 147.598 245.221 150.757C243.616 152.75 241.954 155.009 240.185 157.462C238.415 159.915 236.588 162.563 234.775 165.375C232.842 168.342 231.072 171.411 229.473 174.569C228.638 176.217 227.904 177.936 227.149 179.692L224.919 185.051C221.979 191.802 219.419 198.712 217.25 205.748C215.503 211.506 214.299 217.414 213.653 223.396C213.235 227.432 213.167 231.498 213.452 235.546C213.567 236.985 213.675 238.086 213.775 238.834C213.819 239.194 213.847 239.481 213.876 239.69V239.985C213.845 239.891 213.823 239.795 213.811 239.697C213.775 239.489 213.732 239.208 213.675 238.848C213.545 238.129 213.408 236.992 213.279 235.553C212.932 231.498 212.956 227.418 213.351 223.367C213.957 217.359 215.134 211.424 216.869 205.641C219.019 198.584 221.573 191.657 224.516 184.893L226.804 179.555C227.559 177.807 228.3 176.073 229.142 174.418C230.752 171.25 232.537 168.174 234.487 165.203C236.329 162.325 238.185 159.721 239.933 157.289C241.681 154.858 243.372 152.584 244.969 150.599C247.506 147.448 250.289 144.504 253.292 141.793C254.357 140.836 255.206 140.117 255.781 139.635L256.451 139.095C256.533 139.024 256.622 138.961 256.717 138.908Z" fill="#263238"/>
<path d="M229.235 174.404C229.134 174.108 229.064 173.801 229.027 173.49C228.912 172.893 228.782 172.051 228.631 170.958C228.322 168.8 228.005 165.843 227.667 162.57C227.329 159.296 226.948 156.332 226.631 154.196C226.466 153.131 226.322 152.275 226.221 151.678C226.142 151.372 226.101 151.058 226.099 150.743C226.223 151.031 226.312 151.333 226.365 151.642C226.523 152.232 226.703 153.081 226.905 154.153C227.315 156.311 227.717 159.246 228.056 162.527C228.394 165.807 228.681 168.685 228.904 170.922C229.012 171.929 229.106 172.785 229.178 173.469C229.234 173.777 229.253 174.091 229.235 174.404Z" fill="#263238"/>
<path d="M256.918 169.239C256.568 169.315 256.212 169.358 255.853 169.368C255.134 169.433 254.112 169.519 252.846 169.663C250.314 169.936 246.832 170.44 243.012 171.159C239.192 171.879 235.76 172.692 233.293 173.318C232.063 173.634 231.07 173.922 230.415 174.116C230.066 174.24 229.704 174.327 229.336 174.375C229.669 174.208 230.015 174.071 230.372 173.965C231.048 173.728 232.027 173.397 233.25 173.044C235.703 172.325 239.134 171.469 242.969 170.735C246.217 170.114 249.494 169.658 252.789 169.368C254.062 169.26 255.091 169.217 255.81 169.203C256.18 169.178 256.551 169.19 256.918 169.239Z" fill="#263238"/>
<path d="M217.221 205.137C217.145 205.033 217.082 204.919 217.034 204.799L216.559 203.799C216.149 202.928 215.595 201.641 214.934 200.065C213.596 196.9 211.891 192.468 210.078 187.548C208.265 182.627 206.596 178.195 205.33 174.994C204.711 173.44 204.2 172.167 203.819 171.217L203.416 170.188C203.36 170.07 203.321 169.944 203.301 169.814C203.378 169.918 203.44 170.032 203.488 170.152L203.963 171.152C204.366 172.023 204.927 173.311 205.589 174.886C206.927 178.051 208.632 182.483 210.445 187.404C212.257 192.324 213.926 196.756 215.193 199.957C215.811 201.511 216.322 202.785 216.696 203.734C216.862 204.144 216.998 204.454 217.106 204.763C217.162 204.882 217.201 205.008 217.221 205.137Z" fill="#263238"/>
<path d="M253.969 193.288C253.853 193.354 253.73 193.405 253.602 193.439L252.537 193.799L248.602 195.072C245.278 196.152 240.688 197.691 235.652 199.389C230.617 201.087 226.005 202.597 222.66 203.605C220.991 204.115 219.631 204.504 218.689 204.763L217.603 205.043C217.476 205.084 217.346 205.11 217.214 205.123C217.329 205.056 217.453 205.006 217.581 204.971L218.646 204.612L222.581 203.338C225.905 202.259 230.494 200.72 235.53 199.022C240.566 197.324 245.17 195.813 248.515 194.806C250.192 194.295 251.544 193.907 252.494 193.648L253.58 193.367C253.706 193.327 253.837 193.301 253.969 193.288Z" fill="#263238"/>
<path d="M238.976 18.7823L235.271 20.106L233.681 15.2644C230.76 6.33653 221.451 1.59564 212.898 4.60996C204.344 7.62427 199.79 17.4154 202.711 26.3432L204.301 31.1848L200.581 32.5157C199.163 33.0658 198.011 34.1413 197.366 35.5186C196.72 36.8959 196.63 38.4691 197.114 39.9112L207.423 71.414C207.637 72.1279 207.992 72.7915 208.468 73.3653C208.943 73.9392 209.529 74.4116 210.191 74.7546C210.853 75.0975 211.577 75.3039 212.32 75.3615C213.063 75.4192 213.81 75.3269 214.516 75.0902L252.911 61.3567C254.348 60.8076 255.516 59.7226 256.169 58.3299C256.823 56.9372 256.911 55.3454 256.415 53.8893L246.098 22.3865C245.879 21.6746 245.518 21.0142 245.038 20.4448C244.557 19.8754 243.967 19.4085 243.302 19.0721C242.638 18.7358 241.912 18.5367 241.169 18.4869C240.425 18.4371 239.68 18.5376 238.976 18.7823ZM209.711 23.8181C208.923 21.4967 209.064 18.9607 210.105 16.7412C211.146 14.5217 213.005 12.7911 215.293 11.9119C216.423 11.5253 217.619 11.3703 218.81 11.4561C220.002 11.5419 221.163 11.8667 222.226 12.4112C223.289 12.9558 224.231 13.7088 224.997 14.6254C225.762 15.542 226.335 16.6034 226.681 17.7463L228.264 22.5879L211.293 28.6597L209.711 23.8181ZM231.293 51.7742L233.926 59.8172C233.974 59.9785 233.959 60.1522 233.882 60.3022C233.806 60.4523 233.675 60.5671 233.516 60.6229L229.825 61.9394C229.678 61.9802 229.521 61.9625 229.387 61.89C229.253 61.8176 229.152 61.6961 229.106 61.551L226.451 53.544C224.987 53.4642 223.583 52.9392 222.426 52.0392C221.269 51.1392 220.414 49.9072 219.977 48.5081C219.351 46.6585 219.465 44.6385 220.295 42.8711C221.125 41.1037 222.607 39.726 224.43 39.0264C225.33 38.7188 226.283 38.5957 227.231 38.6642C228.18 38.7327 229.105 38.9915 229.952 39.4252C230.798 39.8589 231.549 40.4585 232.159 41.1884C232.768 41.9183 233.225 42.7636 233.501 43.6737C233.964 45.0949 234.003 46.6203 233.612 48.0629C233.221 49.5056 232.417 50.8028 231.3 51.7958L231.293 51.7742Z" fill="#4CAF4F"/>
<path d="M235.106 20.0196C235.106 20.1204 228.235 22.703 219.689 25.7749C211.142 28.8468 204.171 31.3143 204.135 31.2424C204.099 31.1704 211.006 28.5662 219.559 25.4871C228.113 22.4081 235.07 19.9261 235.106 20.0196Z" fill="#263238"/>
<path d="M243.264 21.3433C243.296 21.4057 243.322 21.4707 243.343 21.5375C243.4 21.6814 243.465 21.8684 243.552 22.0986C243.739 22.6238 243.998 23.3504 244.321 24.2569L247.084 32.2998C248.235 35.7098 249.609 39.7529 251.134 44.242C251.854 46.4937 252.702 48.839 253.494 51.3065C253.917 52.5781 254.1 53.9175 254.033 55.2561C253.972 55.9522 253.774 56.6295 253.451 57.2488C253.105 57.8661 252.643 58.4108 252.091 58.8531C250.979 59.6644 249.746 60.2934 248.436 60.7164L244.731 62.0473L237.717 64.558L225.84 68.7881L217.818 71.6082L215.66 72.3276L215.085 72.5146C215.023 72.542 214.957 72.559 214.89 72.565C214.89 72.565 214.948 72.565 215.07 72.4787L215.631 72.2556L217.79 71.4427L225.768 68.5075L237.624 64.1911L244.623 61.6588L248.328 60.3207C249.601 59.9149 250.799 59.3051 251.875 58.515C252.389 58.1046 252.819 57.599 253.141 57.0258C253.446 56.453 253.63 55.8237 253.681 55.1769C253.747 53.8872 253.571 52.5964 253.163 51.3713C252.386 48.9253 251.566 46.5585 250.825 44.3067C249.328 39.8104 247.947 35.753 246.854 32.343C245.76 28.933 244.839 26.1921 244.206 24.2641C243.904 23.3216 243.674 22.5878 243.487 22.0555L243.314 21.4799C243.292 21.4364 243.276 21.3905 243.264 21.3433Z" fill="#263238"/>
<path d="M223.005 11.4228C223.005 11.4228 222.624 11.2358 221.919 10.948C220.914 10.5619 219.851 10.3478 218.775 10.3149C217.18 10.2602 215.593 10.56 214.128 11.1926C212.346 11.9803 210.823 13.2545 209.732 14.8688C208.635 16.4785 208.046 18.3807 208.042 20.3291C208.057 21.9259 208.299 23.5126 208.761 25.0412C209.135 26.3505 209.524 27.3936 209.783 28.1202C209.935 28.4893 210.06 28.8692 210.157 29.2569C209.952 28.9118 209.781 28.5481 209.646 28.1706C209.351 27.4512 208.927 26.4296 208.509 25.1131C207.997 23.5685 207.718 21.956 207.682 20.3291C207.663 18.3071 208.266 16.3281 209.409 14.6601C210.537 12.9869 212.123 11.6733 213.977 10.8761C215.488 10.24 217.124 9.9594 218.761 10.0559C219.86 10.112 220.94 10.3679 221.948 10.8113C222.217 10.9356 222.477 11.0799 222.725 11.243C222.827 11.2879 222.922 11.3486 223.005 11.4228Z" fill="#263238"/>
<path d="M223.336 39.573C223.451 39.5035 223.571 39.4433 223.696 39.3932C224.056 39.2307 224.429 39.0983 224.811 38.9975C225.417 38.8186 226.043 38.7123 226.674 38.681C227.533 38.6348 228.392 38.7646 229.199 39.0623C231.041 39.7097 232.732 41.5874 233.566 44.0981C233.966 45.4455 233.966 46.8801 233.566 48.2275C233.122 49.6899 232.327 51.0212 231.25 52.1051L231.293 51.9109C232.25 54.5367 233.293 57.3855 234.372 60.3567L234.437 60.5365L234.257 60.6013L232.609 61.148L229.012 62.3494L228.833 62.407L228.775 62.2271C227.789 59.2488 226.71 56.4719 225.897 53.7453L226.056 53.8676C224.649 53.7508 223.308 53.2229 222.2 52.3497C221.197 51.5772 220.374 50.5951 219.79 49.4721C219.262 48.4761 219 47.3614 219.027 46.2347C219.06 45.0833 219.348 43.9535 219.869 42.9261C220.39 41.8988 221.132 40.9995 222.041 40.2925C222.416 39.9886 222.836 39.7458 223.286 39.573C222.88 39.8142 222.486 40.0759 222.106 40.3572C221.107 41.2024 220.342 42.2898 219.883 43.5154C219.49 44.4396 219.305 45.4394 219.344 46.4432C219.383 47.447 219.643 48.4297 220.106 49.321C220.681 50.4014 221.484 51.344 222.459 52.0835C223.516 52.9135 224.795 53.4139 226.135 53.5223H226.257L226.293 53.6302C227.084 56.3064 228.171 59.1049 229.171 62.0977L228.933 61.9826L232.53 60.7811L234.17 60.2272L234.055 60.4718C232.983 57.5006 231.948 54.6446 230.998 52.0188V51.9109L231.084 51.8245C232.13 50.7856 232.91 49.5098 233.358 48.1052C233.739 46.8163 233.739 45.4445 233.358 44.1557C232.573 41.7385 230.955 39.904 229.199 39.2565C228.422 38.9569 227.593 38.8174 226.761 38.8464C226.139 38.8607 225.521 38.9451 224.919 39.0982C223.847 39.3644 223.343 39.609 223.336 39.573Z" fill="#263238"/>
<path d="M201.099 247.294L129.238 246.963C125.088 246.94 121.117 245.271 118.196 242.323C115.276 239.374 113.646 235.387 113.663 231.237L114.425 51.0906C114.434 49.0346 114.847 47.0004 115.643 45.1043C116.438 43.2082 117.599 41.4874 119.059 40.0403C120.52 38.5931 122.251 37.448 124.154 36.6704C126.058 35.8927 128.096 35.4978 130.152 35.5083L202.006 35.8392C206.156 35.8601 210.128 37.5273 213.049 40.4746C215.971 43.4219 217.603 47.4082 217.588 51.5582L216.826 231.698C216.817 233.754 216.404 235.789 215.609 237.686C214.814 239.583 213.653 241.305 212.193 242.753C210.732 244.201 209.001 245.348 207.098 246.127C205.194 246.906 203.156 247.303 201.099 247.294Z" fill="#455A64"/>
<path d="M201.898 42.0334H187.97C187.516 42.0418 187.067 42.1397 186.651 42.3214C186.234 42.5031 185.857 42.7651 185.542 43.0925C185.227 43.4198 184.979 43.8061 184.813 44.2292C184.647 44.6523 184.566 45.104 184.575 45.5585V48.0836C184.583 48.5377 184.502 48.989 184.336 49.4117C184.17 49.8344 183.922 50.2202 183.607 50.547C183.291 50.8737 182.914 51.1351 182.498 51.316C182.081 51.497 181.633 51.594 181.179 51.6015L154.029 51.4792C153.11 51.4547 152.239 51.0667 151.606 50.4003C150.974 49.734 150.631 48.8438 150.655 47.9253V45.4002C150.678 44.4829 150.337 43.5938 149.705 42.9276C149.074 42.2615 148.205 41.8727 147.288 41.8463H142.389L130.195 41.7888C127.294 41.7715 124.505 42.9042 122.438 44.9389C120.371 46.9735 119.195 49.7443 119.166 52.6446L118.447 228.482C118.44 229.921 118.717 231.347 119.262 232.679C119.806 234.01 120.608 235.222 121.62 236.244C122.633 237.266 123.837 238.079 125.164 238.636C126.491 239.192 127.914 239.482 129.353 239.489L201.063 239.82C202.503 239.826 203.93 239.549 205.263 239.004C206.596 238.46 207.808 237.658 208.831 236.644C209.854 235.631 210.667 234.426 211.224 233.098C211.781 231.771 212.071 230.346 212.078 228.906L212.797 53.0691C212.814 50.1606 211.676 47.3643 209.632 45.2949C207.588 43.2255 204.806 42.0524 201.898 42.0334Z" fill="white"/>
<path d="M192.251 216.36L138.928 216.13C138.374 216.13 137.928 215.525 137.935 214.792L137.993 200.842C137.993 200.123 138.446 199.504 139 199.504L192.323 199.749C192.63 199.802 192.904 199.971 193.089 200.222C193.274 200.473 193.355 200.785 193.315 201.094L193.265 215.029C193.265 215.77 192.805 216.367 192.251 216.36Z" fill="#4CAF4F"/>
<path d="M155.14 209.683C154.846 209.683 154.563 209.635 154.291 209.541C154.023 209.443 153.816 209.319 153.669 209.168L153.833 208.845C153.972 208.981 154.159 209.096 154.393 209.19C154.631 209.281 154.88 209.326 155.14 209.326C155.389 209.326 155.591 209.296 155.746 209.236C155.904 209.171 156.019 209.086 156.091 208.981C156.167 208.875 156.204 208.758 156.204 208.63C156.204 208.475 156.159 208.351 156.069 208.256C155.982 208.162 155.867 208.088 155.723 208.036C155.58 207.979 155.421 207.93 155.248 207.888C155.074 207.847 154.901 207.804 154.727 207.758C154.554 207.709 154.393 207.645 154.246 207.566C154.103 207.487 153.986 207.383 153.895 207.255C153.808 207.122 153.765 206.951 153.765 206.739C153.765 206.543 153.816 206.364 153.918 206.202C154.023 206.036 154.184 205.904 154.399 205.806C154.614 205.704 154.889 205.653 155.225 205.653C155.448 205.653 155.669 205.685 155.887 205.749C156.106 205.809 156.295 205.894 156.453 206.004L156.312 206.338C156.142 206.224 155.961 206.141 155.769 206.089C155.58 206.036 155.397 206.009 155.22 206.009C154.982 206.009 154.786 206.041 154.631 206.106C154.476 206.17 154.361 206.256 154.286 206.366C154.214 206.472 154.178 206.592 154.178 206.728C154.178 206.883 154.222 207.007 154.308 207.102C154.399 207.196 154.516 207.27 154.659 207.322C154.806 207.375 154.967 207.422 155.14 207.464C155.314 207.505 155.486 207.551 155.655 207.6C155.829 207.649 155.987 207.713 156.131 207.792C156.278 207.868 156.395 207.97 156.482 208.098C156.572 208.226 156.618 208.394 156.618 208.602C156.618 208.794 156.565 208.973 156.459 209.139C156.353 209.302 156.191 209.434 155.972 209.535C155.757 209.634 155.48 209.683 155.14 209.683ZM157.53 209.649V205.687H157.949V209.649H157.53ZM159.238 209.649V205.687H159.583L162.317 209.128H162.136V205.687H162.549V209.649H162.204L159.476 206.207H159.657V209.649H159.238ZM165.58 209.683C165.278 209.683 164.999 209.634 164.742 209.535C164.489 209.434 164.269 209.292 164.08 209.111C163.895 208.93 163.75 208.717 163.644 208.471C163.542 208.226 163.491 207.958 163.491 207.668C163.491 207.377 163.542 207.109 163.644 206.864C163.75 206.619 163.897 206.406 164.086 206.224C164.274 206.043 164.495 205.904 164.748 205.806C165.004 205.704 165.284 205.653 165.586 205.653C165.887 205.653 166.163 205.7 166.412 205.794C166.665 205.889 166.88 206.032 167.057 206.224L166.797 206.49C166.631 206.324 166.448 206.206 166.248 206.134C166.048 206.062 165.833 206.026 165.603 206.026C165.357 206.026 165.131 206.068 164.923 206.151C164.72 206.23 164.54 206.345 164.386 206.496C164.235 206.643 164.116 206.817 164.029 207.017C163.946 207.213 163.905 207.43 163.905 207.668C163.905 207.902 163.946 208.119 164.029 208.319C164.116 208.519 164.235 208.694 164.386 208.845C164.54 208.992 164.72 209.107 164.923 209.19C165.131 209.269 165.355 209.309 165.597 209.309C165.823 209.309 166.036 209.275 166.236 209.207C166.44 209.139 166.627 209.024 166.797 208.862L167.034 209.179C166.846 209.345 166.625 209.471 166.372 209.558C166.119 209.641 165.855 209.683 165.58 209.683ZM166.633 209.128V207.668H167.034V209.179L166.633 209.128ZM171.297 209.683C170.792 209.683 170.394 209.537 170.103 209.247C169.813 208.956 169.667 208.526 169.667 207.956V205.687H170.086V207.939C170.086 208.407 170.192 208.753 170.403 208.975C170.614 209.198 170.912 209.309 171.297 209.309C171.686 209.309 171.986 209.198 172.197 208.975C172.409 208.753 172.514 208.407 172.514 207.939V205.687H172.922V207.956C172.922 208.526 172.776 208.956 172.486 209.247C172.199 209.537 171.803 209.683 171.297 209.683ZM174.184 209.649V205.687H175.667C176.003 205.687 176.291 205.741 176.533 205.851C176.774 205.957 176.959 206.111 177.087 206.315C177.219 206.515 177.285 206.758 177.285 207.045C177.285 207.324 177.219 207.566 177.087 207.77C176.959 207.97 176.774 208.124 176.533 208.234C176.291 208.343 176.003 208.398 175.667 208.398H174.416L174.603 208.2V209.649H174.184ZM174.603 208.234L174.416 208.03H175.655C176.052 208.03 176.352 207.945 176.555 207.775C176.763 207.602 176.867 207.358 176.867 207.045C176.867 206.728 176.763 206.483 176.555 206.309C176.352 206.136 176.052 206.049 175.655 206.049H174.416L174.603 205.851V208.234Z" fill="#E8E8E3"/>
<path d="M149.564 93.7226L131.061 93.6387L131.046 97.0342L149.549 97.1182L149.564 93.7226Z" fill="#4CAF4F"/>
<path opacity="0.1" d="M149.564 93.7226L131.061 93.6387L131.046 97.0342L149.549 97.1182L149.564 93.7226Z" fill="black"/>
<path d="M203.804 114.571C203.95 114.556 204.092 114.522 204.229 114.47C204.428 114.392 204.601 114.26 204.728 114.088C204.856 113.916 204.932 113.712 204.948 113.499C204.948 112.355 204.948 110.686 204.948 108.542C204.948 107.471 204.948 106.269 204.948 104.945C204.948 104.622 204.948 104.284 204.948 103.945C204.995 103.617 204.924 103.283 204.747 103.003C204.648 102.869 204.519 102.759 204.37 102.683C204.222 102.607 204.058 102.566 203.891 102.564H202.768H192.373L132.202 102.341C132.048 102.339 131.895 102.373 131.758 102.442C131.62 102.511 131.501 102.612 131.411 102.737C131.237 103.018 131.17 103.353 131.223 103.679C131.223 104.399 131.223 105.118 131.223 105.837C131.223 107.276 131.223 108.715 131.223 110.154C131.223 110.873 131.223 111.593 131.223 112.312C131.194 112.647 131.194 112.984 131.223 113.319C131.261 113.463 131.331 113.596 131.429 113.708C131.526 113.82 131.648 113.909 131.785 113.967C131.926 114.023 132.078 114.05 132.231 114.046H135.892L151.87 114.132L178.92 114.298L197.157 114.442L202.114 114.499H203.401C203.696 114.499 203.84 114.499 203.84 114.499H203.401H202.114H197.157H178.92L151.87 114.413L135.892 114.348H132.231C132.029 114.356 131.828 114.322 131.641 114.247C131.451 114.166 131.283 114.043 131.148 113.888C131.014 113.732 130.916 113.547 130.864 113.348C130.822 113.159 130.808 112.965 130.821 112.773V112.24C130.821 111.521 130.821 110.801 130.821 110.082C130.821 108.643 130.821 107.204 130.821 105.766C130.821 105.046 130.821 104.327 130.821 103.607C130.807 103.416 130.807 103.223 130.821 103.032C130.848 102.82 130.929 102.619 131.058 102.449C131.182 102.275 131.346 102.134 131.537 102.038C131.727 101.941 131.938 101.892 132.151 101.895L192.323 102.226L202.718 102.298H203.84C204.038 102.298 204.233 102.346 204.408 102.437C204.583 102.529 204.734 102.661 204.848 102.823C205.05 103.136 205.132 103.512 205.078 103.881C205.078 104.219 205.078 104.557 205.078 104.881C205.078 106.19 205.078 107.391 205.078 108.478C205.078 110.636 205.027 112.291 205.013 113.442C204.995 113.663 204.915 113.875 204.781 114.052C204.647 114.229 204.466 114.364 204.258 114.442C204.121 114.526 203.965 114.571 203.804 114.571Z" fill="#E0E0E0"/>
<path d="M170.46 105.952H136.619V109.125H170.46V105.952Z" fill="#4CAF4F"/>
<path opacity="0.2" d="M170.46 105.952H136.619V109.125H170.46V105.952Z" fill="white"/>
<path d="M149.438 124.699L130.935 124.615L130.92 128.011L149.422 128.095L149.438 124.699Z" fill="#4CAF4F"/>
<path opacity="0.1" d="M149.438 124.699L130.935 124.615L130.92 128.011L149.422 128.095L149.438 124.699Z" fill="black"/>
<path d="M203.337 145.549C203.482 145.531 203.626 145.504 203.768 145.47C203.969 145.406 204.154 145.299 204.311 145.158C204.467 145.016 204.591 144.843 204.675 144.649C204.788 144.359 204.832 144.046 204.804 143.736C204.804 143.39 204.804 143.016 204.804 142.599C204.804 141.765 204.804 140.815 204.804 139.722V135.153C204.839 134.823 204.766 134.49 204.596 134.204C204.418 133.91 204.139 133.693 203.812 133.592C203.453 133.528 203.088 133.509 202.725 133.535H192.373L132.411 133.312C132.088 133.312 131.777 133.43 131.535 133.643C131.292 133.856 131.136 134.15 131.094 134.47C131.094 135.153 131.094 135.909 131.094 136.628C131.094 138.067 131.094 139.506 131.094 140.945C131.094 141.664 131.094 142.383 131.094 143.103C131.067 143.439 131.082 143.777 131.137 144.11C131.227 144.402 131.412 144.655 131.662 144.829C131.928 144.998 132.24 145.079 132.554 145.06H133.554H135.633L151.554 145.139L178.51 145.304L196.682 145.448L201.625 145.506H196.682H178.51L151.54 145.477L135.619 145.419H132.49C132.101 145.442 131.714 145.339 131.389 145.124C131.062 144.897 130.823 144.565 130.713 144.182C130.648 143.816 130.629 143.444 130.655 143.074C130.655 142.355 130.655 141.635 130.655 140.916C130.655 139.477 130.655 138.038 130.655 136.599C130.655 135.88 130.655 135.16 130.655 134.441C130.708 134.03 130.908 133.652 131.219 133.377C131.531 133.103 131.931 132.952 132.346 132.952L192.308 133.283L202.661 133.362C203.046 133.338 203.433 133.365 203.812 133.441C204.185 133.563 204.501 133.82 204.696 134.161C204.883 134.477 204.963 134.845 204.927 135.211C204.927 135.549 204.927 135.88 204.927 136.211C204.927 137.513 204.927 138.707 204.927 139.808C204.927 140.909 204.927 141.837 204.927 142.685C204.927 143.096 204.927 143.477 204.927 143.829C204.953 144.151 204.901 144.474 204.776 144.772C204.682 144.97 204.547 145.146 204.379 145.288C204.212 145.429 204.016 145.533 203.804 145.592C203.647 145.605 203.489 145.59 203.337 145.549Z" fill="#E0E0E0"/>
<path d="M149.298 157.021L130.796 156.938L130.78 160.333L149.283 160.417L149.298 157.021Z" fill="#4CAF4F"/>
<path opacity="0.1" d="M149.298 157.021L130.796 156.938L130.78 160.333L149.283 160.417L149.298 157.021Z" fill="black"/>
<path d="M203.193 177.857C203.338 177.84 203.482 177.813 203.624 177.778C203.825 177.714 204.009 177.609 204.165 177.469C204.321 177.329 204.446 177.157 204.531 176.965C204.644 176.674 204.688 176.362 204.66 176.051C204.66 175.699 204.66 175.332 204.66 174.908C204.66 174.08 204.66 173.123 204.66 172.03V167.462C204.695 167.131 204.622 166.798 204.452 166.512C204.27 166.224 203.992 166.01 203.668 165.908C203.31 165.841 202.945 165.819 202.581 165.843H192.229L132.267 165.62C131.944 165.621 131.633 165.739 131.391 165.952C131.148 166.165 130.992 166.458 130.95 166.778C130.95 167.498 130.95 168.217 130.95 168.936C130.95 170.375 130.95 171.814 130.95 173.253C130.95 173.972 130.95 174.692 130.95 175.411C130.923 175.745 130.938 176.081 130.993 176.411C131.079 176.705 131.265 176.959 131.518 177.13C131.782 177.303 132.096 177.384 132.41 177.361H135.54L151.46 177.447L178.416 177.612L196.589 177.756L201.531 177.814H196.589H178.416L151.46 177.735L135.54 177.67H132.41C132.021 177.696 131.634 177.593 131.31 177.375C130.982 177.148 130.744 176.815 130.634 176.433C130.569 176.067 130.55 175.695 130.576 175.325C130.576 174.605 130.576 173.886 130.576 173.167C130.576 171.728 130.576 170.289 130.576 168.85C130.576 168.131 130.576 167.411 130.576 166.656C130.627 166.245 130.826 165.867 131.136 165.593C131.446 165.319 131.846 165.167 132.259 165.167L192.222 165.498L202.574 165.577C202.96 165.553 203.347 165.58 203.725 165.656C204.099 165.778 204.414 166.034 204.61 166.375C204.796 166.692 204.877 167.06 204.84 167.426C204.84 167.764 204.84 168.102 204.84 168.426C204.84 169.728 204.84 170.922 204.84 172.023C204.84 173.123 204.84 174.051 204.84 174.9C204.84 175.31 204.84 175.692 204.84 176.044C204.868 176.366 204.816 176.69 204.689 176.987C204.596 177.185 204.461 177.361 204.293 177.503C204.126 177.644 203.929 177.748 203.718 177.807C203.549 177.864 203.369 177.882 203.193 177.857Z" fill="#E0E0E0"/>
<path d="M169.737 137.827L135.897 137.674L135.883 140.846L169.723 141L169.737 137.827Z" fill="#4CAF4F"/>
<path opacity="0.2" d="M169.737 137.827L135.897 137.674L135.883 140.846L169.723 141L169.737 137.827Z" fill="white"/>
<path d="M138.957 171.987C138.936 172.276 138.83 172.553 138.653 172.783C138.476 173.013 138.235 173.186 137.961 173.28C137.687 173.374 137.39 173.386 137.109 173.314C136.828 173.241 136.575 173.088 136.38 172.873C136.186 172.658 136.058 172.39 136.014 172.103C135.97 171.817 136.011 171.523 136.132 171.26C136.254 170.996 136.45 170.774 136.696 170.62C136.942 170.467 137.228 170.389 137.518 170.397C137.919 170.419 138.295 170.599 138.564 170.896C138.834 171.194 138.975 171.586 138.957 171.987Z" fill="#4CAF4F"/>
<path d="M143.54 172.009C143.554 172.211 143.526 172.415 143.458 172.607C143.39 172.798 143.284 172.974 143.145 173.122C143.006 173.271 142.839 173.39 142.652 173.471C142.466 173.552 142.265 173.594 142.061 173.594C141.858 173.594 141.657 173.552 141.47 173.471C141.284 173.39 141.116 173.271 140.978 173.122C140.839 172.974 140.732 172.798 140.664 172.607C140.596 172.415 140.569 172.211 140.583 172.009C140.569 171.806 140.596 171.602 140.664 171.411C140.732 171.219 140.839 171.043 140.978 170.895C141.116 170.746 141.284 170.627 141.47 170.546C141.657 170.465 141.858 170.423 142.061 170.423C142.265 170.423 142.466 170.465 142.652 170.546C142.839 170.627 143.006 170.746 143.145 170.895C143.284 171.043 143.39 171.219 143.458 171.411C143.526 171.602 143.554 171.806 143.54 172.009Z" fill="#4CAF4F"/>
<path d="M148.13 172.03C148.108 172.319 148.003 172.596 147.825 172.826C147.648 173.056 147.408 173.229 147.133 173.323C146.859 173.417 146.563 173.429 146.282 173.357C146.001 173.284 145.747 173.131 145.553 172.916C145.358 172.701 145.231 172.433 145.187 172.146C145.143 171.86 145.184 171.566 145.305 171.302C145.426 171.039 145.622 170.817 145.868 170.663C146.115 170.51 146.401 170.432 146.691 170.44C147.091 170.464 147.466 170.644 147.735 170.941C148.003 171.239 148.145 171.629 148.13 172.03Z" fill="#4CAF4F"/>
<path d="M152.712 172.052C152.691 172.341 152.585 172.618 152.408 172.848C152.231 173.077 151.99 173.25 151.716 173.345C151.442 173.439 151.146 173.451 150.865 173.378C150.584 173.306 150.33 173.153 150.135 172.938C149.941 172.722 149.813 172.455 149.769 172.168C149.725 171.881 149.766 171.588 149.888 171.324C150.009 171.061 150.205 170.838 150.451 170.685C150.697 170.532 150.983 170.454 151.273 170.462C151.673 170.486 152.048 170.666 152.317 170.963C152.586 171.26 152.728 171.651 152.712 172.052Z" fill="#4CAF4F"/>
<path d="M157.295 172.066C157.275 172.356 157.17 172.633 156.994 172.864C156.818 173.095 156.577 173.269 156.303 173.364C156.029 173.46 155.732 173.472 155.451 173.401C155.169 173.329 154.915 173.176 154.72 172.962C154.524 172.747 154.396 172.479 154.352 172.192C154.307 171.905 154.348 171.611 154.469 171.347C154.59 171.083 154.786 170.86 155.033 170.707C155.279 170.553 155.566 170.475 155.856 170.483C156.255 170.507 156.628 170.686 156.897 170.982C157.166 171.278 157.309 171.667 157.295 172.066Z" fill="#4CAF4F"/>
<path d="M161.885 172.088C161.865 172.376 161.761 172.652 161.587 172.882C161.412 173.113 161.174 173.287 160.902 173.384C160.629 173.48 160.335 173.495 160.054 173.426C159.773 173.358 159.519 173.209 159.322 172.997C159.125 172.786 158.994 172.521 158.945 172.237C158.897 171.952 158.932 171.659 159.048 171.394C159.163 171.129 159.354 170.904 159.596 170.746C159.838 170.588 160.121 170.504 160.41 170.505C160.815 170.52 161.198 170.695 161.474 170.992C161.751 171.288 161.898 171.682 161.885 172.088Z" fill="#4CAF4F"/>
<path d="M166.467 172.109C166.481 172.312 166.454 172.515 166.386 172.707C166.318 172.899 166.211 173.074 166.073 173.223C165.934 173.372 165.766 173.49 165.58 173.571C165.393 173.652 165.192 173.694 164.989 173.694C164.785 173.694 164.584 173.652 164.398 173.571C164.211 173.49 164.044 173.372 163.905 173.223C163.766 173.074 163.66 172.899 163.592 172.707C163.524 172.515 163.496 172.312 163.51 172.109C163.496 171.906 163.524 171.703 163.592 171.511C163.66 171.319 163.766 171.144 163.905 170.995C164.044 170.846 164.211 170.728 164.398 170.647C164.584 170.566 164.785 170.524 164.989 170.524C165.192 170.524 165.393 170.566 165.58 170.647C165.766 170.728 165.934 170.846 166.073 170.995C166.211 171.144 166.318 171.319 166.386 171.511C166.454 171.703 166.481 171.906 166.467 172.109Z" fill="#4CAF4F"/>
<path d="M171.05 172.131C171.03 172.419 170.927 172.695 170.752 172.926C170.577 173.156 170.339 173.33 170.067 173.427C169.795 173.523 169.5 173.538 169.219 173.47C168.939 173.401 168.684 173.252 168.487 173.04C168.29 172.829 168.159 172.565 168.11 172.28C168.062 171.995 168.097 171.702 168.213 171.437C168.329 171.172 168.519 170.947 168.761 170.789C169.003 170.631 169.286 170.547 169.575 170.548C169.98 170.563 170.363 170.738 170.639 171.035C170.916 171.331 171.063 171.726 171.05 172.131Z" fill="#4CAF4F"/>
<path d="M175.632 172.152C175.613 172.442 175.508 172.72 175.332 172.951C175.155 173.181 174.915 173.355 174.641 173.451C174.366 173.546 174.07 173.559 173.789 173.487C173.507 173.416 173.253 173.263 173.057 173.048C172.862 172.833 172.734 172.565 172.689 172.278C172.645 171.991 172.686 171.697 172.807 171.433C172.928 171.169 173.124 170.947 173.37 170.793C173.617 170.64 173.903 170.562 174.194 170.57C174.592 170.594 174.966 170.773 175.235 171.068C175.504 171.364 175.646 171.753 175.632 172.152Z" fill="#4CAF4F"/>
<g opacity="0.2">
<path d="M138.957 171.987C138.936 172.276 138.83 172.553 138.653 172.783C138.476 173.013 138.235 173.186 137.961 173.28C137.687 173.374 137.39 173.386 137.109 173.314C136.828 173.241 136.575 173.088 136.38 172.873C136.186 172.658 136.058 172.39 136.014 172.103C135.97 171.817 136.011 171.523 136.132 171.26C136.254 170.996 136.45 170.774 136.696 170.62C136.942 170.467 137.228 170.389 137.518 170.397C137.919 170.419 138.295 170.599 138.564 170.896C138.834 171.194 138.975 171.586 138.957 171.987Z" fill="white"/>
<path d="M143.54 172.009C143.554 172.211 143.526 172.415 143.458 172.607C143.39 172.798 143.284 172.974 143.145 173.122C143.006 173.271 142.839 173.39 142.652 173.471C142.466 173.552 142.265 173.594 142.061 173.594C141.858 173.594 141.657 173.552 141.47 173.471C141.284 173.39 141.116 173.271 140.977 173.122C140.839 172.974 140.732 172.798 140.664 172.607C140.596 172.415 140.569 172.211 140.583 172.009C140.569 171.806 140.596 171.602 140.664 171.411C140.732 171.219 140.839 171.043 140.977 170.895C141.116 170.746 141.284 170.627 141.47 170.546C141.657 170.465 141.858 170.423 142.061 170.423C142.265 170.423 142.466 170.465 142.652 170.546C142.839 170.627 143.006 170.746 143.145 170.895C143.284 171.043 143.39 171.219 143.458 171.411C143.526 171.602 143.554 171.806 143.54 172.009Z" fill="white"/>
<path d="M148.129 172.03C148.108 172.319 148.003 172.596 147.825 172.826C147.648 173.056 147.408 173.229 147.133 173.323C146.859 173.417 146.563 173.429 146.282 173.357C146.001 173.284 145.747 173.131 145.553 172.916C145.358 172.701 145.231 172.433 145.187 172.147C145.143 171.86 145.184 171.566 145.305 171.303C145.426 171.039 145.622 170.817 145.868 170.664C146.115 170.51 146.401 170.433 146.691 170.44C147.091 170.464 147.466 170.644 147.734 170.942C148.003 171.239 148.145 171.63 148.129 172.03Z" fill="white"/>
<path d="M152.712 172.052C152.691 172.341 152.585 172.618 152.408 172.848C152.231 173.077 151.99 173.25 151.716 173.345C151.442 173.439 151.145 173.451 150.865 173.378C150.584 173.306 150.33 173.153 150.135 172.938C149.941 172.722 149.813 172.455 149.769 172.168C149.725 171.881 149.766 171.588 149.888 171.324C150.009 171.061 150.205 170.838 150.451 170.685C150.697 170.532 150.983 170.454 151.273 170.462C151.673 170.486 152.048 170.666 152.317 170.963C152.586 171.26 152.728 171.651 152.712 172.052Z" fill="white"/>
<path d="M157.295 172.066C157.275 172.356 157.17 172.634 156.994 172.864C156.818 173.095 156.577 173.269 156.303 173.365C156.029 173.46 155.732 173.473 155.451 173.401C155.169 173.329 154.915 173.177 154.72 172.962C154.524 172.747 154.396 172.479 154.352 172.192C154.307 171.905 154.348 171.611 154.469 171.347C154.59 171.083 154.786 170.861 155.033 170.707C155.279 170.553 155.566 170.476 155.856 170.483C156.255 170.508 156.628 170.687 156.897 170.982C157.166 171.278 157.309 171.667 157.295 172.066Z" fill="white"/>
<path d="M161.884 172.088C161.865 172.376 161.761 172.652 161.587 172.882C161.412 173.113 161.174 173.287 160.902 173.384C160.629 173.48 160.335 173.495 160.054 173.426C159.773 173.358 159.519 173.209 159.322 172.997C159.125 172.786 158.994 172.521 158.945 172.237C158.896 171.952 158.932 171.659 159.048 171.394C159.163 171.129 159.354 170.904 159.596 170.746C159.838 170.588 160.121 170.504 160.41 170.505C160.815 170.52 161.198 170.695 161.474 170.992C161.75 171.288 161.898 171.682 161.884 172.088Z" fill="white"/>
<path d="M166.467 172.109C166.481 172.312 166.454 172.515 166.386 172.707C166.318 172.899 166.211 173.074 166.073 173.223C165.934 173.372 165.766 173.49 165.58 173.571C165.393 173.652 165.192 173.694 164.989 173.694C164.785 173.694 164.584 173.652 164.398 173.571C164.211 173.49 164.044 173.372 163.905 173.223C163.766 173.074 163.66 172.899 163.592 172.707C163.524 172.515 163.496 172.312 163.51 172.109C163.496 171.906 163.524 171.703 163.592 171.511C163.66 171.319 163.766 171.144 163.905 170.995C164.044 170.846 164.211 170.728 164.398 170.647C164.584 170.566 164.785 170.524 164.989 170.524C165.192 170.524 165.393 170.566 165.58 170.647C165.766 170.728 165.934 170.846 166.073 170.995C166.211 171.144 166.318 171.319 166.386 171.511C166.454 171.703 166.481 171.906 166.467 172.109Z" fill="white"/>
<path d="M171.05 172.131C171.03 172.419 170.927 172.695 170.752 172.926C170.577 173.156 170.339 173.33 170.067 173.427C169.795 173.523 169.5 173.538 169.219 173.47C168.938 173.401 168.684 173.252 168.487 173.04C168.29 172.829 168.159 172.565 168.11 172.28C168.062 171.995 168.097 171.702 168.213 171.437C168.329 171.172 168.519 170.947 168.761 170.789C169.003 170.631 169.286 170.547 169.575 170.548C169.98 170.563 170.363 170.738 170.639 171.035C170.916 171.331 171.063 171.726 171.05 172.131Z" fill="white"/>
<path d="M175.632 172.152C175.613 172.442 175.508 172.72 175.332 172.951C175.155 173.181 174.915 173.355 174.641 173.451C174.366 173.546 174.07 173.559 173.788 173.487C173.507 173.416 173.253 173.263 173.057 173.048C172.862 172.833 172.734 172.565 172.689 172.278C172.645 171.991 172.686 171.697 172.807 171.433C172.928 171.169 173.124 170.947 173.37 170.793C173.617 170.64 173.903 170.562 174.194 170.57C174.592 170.594 174.966 170.773 175.235 171.068C175.504 171.364 175.646 171.753 175.632 172.152Z" fill="white"/>
</g>
<path d="M169.122 68.2987C169.622 68.0786 170.046 67.7165 170.341 67.2573C170.636 66.798 170.79 66.2621 170.784 65.716C170.802 65.3611 170.748 65.0061 170.625 64.6726C170.502 64.3391 170.313 64.0342 170.068 63.7763C169.823 63.5185 169.529 63.3132 169.202 63.1729C168.876 63.0326 168.524 62.9602 168.169 62.9602C167.813 62.9602 167.461 63.0326 167.135 63.1729C166.808 63.3132 166.514 63.5185 166.269 63.7763C166.024 64.0342 165.835 64.3391 165.712 64.6726C165.589 65.0061 165.535 65.3611 165.554 65.716C165.543 66.2675 165.695 66.8099 165.992 67.2747C166.289 67.7395 166.717 68.1058 167.223 68.3275C163.194 68.9318 163.374 73.3058 163.374 73.3058L172.899 73.3489C172.899 73.3489 173.122 68.8958 169.122 68.2987Z" fill="#4CAF4F"/>
<path opacity="0.1" d="M169.122 68.2987C169.622 68.0786 170.046 67.7165 170.341 67.2573C170.636 66.798 170.79 66.2621 170.784 65.716C170.802 65.3611 170.748 65.0061 170.625 64.6726C170.502 64.3391 170.313 64.0342 170.068 63.7763C169.823 63.5185 169.529 63.3132 169.202 63.1729C168.876 63.0326 168.524 62.9602 168.169 62.9602C167.813 62.9602 167.461 63.0326 167.135 63.1729C166.808 63.3132 166.514 63.5185 166.269 63.7763C166.024 64.0342 165.835 64.3391 165.712 64.6726C165.589 65.0061 165.535 65.3611 165.554 65.716C165.543 66.2675 165.695 66.8099 165.992 67.2747C166.289 67.7395 166.717 68.1058 167.223 68.3275C163.194 68.9318 163.374 73.3058 163.374 73.3058L172.899 73.3489C172.899 73.3489 173.122 68.8958 169.122 68.2987Z" fill="black"/>
<path d="M184.599 76.1702L150.651 76.0161L150.633 80.0735L184.581 80.2276L184.599 76.1702Z" fill="#4CAF4F"/>
<path opacity="0.2" d="M184.599 76.1702L150.651 76.0161L150.633 80.0735L184.581 80.2276L184.599 76.1702Z" fill="white"/>
<path d="M59.7936 97.1973H59.4555L58.4771 97.2693C57.9476 97.3011 57.4211 97.3708 56.9016 97.4779C56.5651 97.5251 56.2314 97.59 55.9017 97.6721L54.7866 97.9815C52.8887 98.5638 51.098 99.4506 49.4845 100.607C47.3529 102.155 45.5729 104.136 44.2617 106.42C43.491 107.737 42.8777 109.14 42.4344 110.6C41.9685 112.187 41.7003 113.825 41.6358 115.477C41.593 116.346 41.6074 117.215 41.679 118.082C41.679 118.521 41.8013 118.959 41.8588 119.405C41.9073 119.855 41.9914 120.3 42.1106 120.736C42.7575 123.623 44.0701 126.319 45.9437 128.608C47.8173 130.898 50.2 132.718 52.9017 133.923C54.8571 134.767 56.953 135.238 59.0814 135.311C61.2797 135.432 63.4802 135.117 65.5561 134.383L66.1892 134.146H66.2755L66.3474 134.189L75.4191 138.793L75.153 139.024C74.1818 136.016 73.2465 133.103 72.3401 130.304V130.196L72.4192 130.117C74.6199 127.901 76.2535 125.186 77.1817 122.204C78.0223 119.477 78.2677 116.602 77.9011 113.772C77.575 111.258 76.7665 108.83 75.5199 106.622C74.4453 104.725 73.059 103.022 71.4192 101.586C70.0664 100.449 68.569 99.4955 66.9661 98.7512C65.7533 98.2281 64.4902 97.8304 63.1964 97.5642L61.7576 97.3268L60.7145 97.2477L60.0814 97.2045H59.8656C59.9373 97.1966 60.0097 97.1966 60.0814 97.2045H60.7217L61.7648 97.2477L63.2036 97.4563C64.5135 97.703 65.7938 98.0864 67.0237 98.6002C68.6541 99.3356 70.1785 100.287 71.5559 101.427C73.2259 102.858 74.6415 104.56 75.7429 106.463C77.0249 108.695 77.8582 111.156 78.1961 113.708C78.593 116.581 78.3648 119.506 77.527 122.283C76.5928 125.327 74.9339 128.1 72.6926 130.362L72.7358 130.175C73.6422 132.973 74.5846 135.887 75.563 138.887L75.6997 139.326L75.2896 139.117L66.2179 134.52H66.3762L65.7287 134.758C63.6129 135.502 61.3717 135.825 59.1318 135.707C56.9575 135.624 54.8178 135.136 52.8226 134.268C49.0167 132.638 45.8503 129.805 43.8084 126.204C42.8688 124.54 42.1826 122.746 41.7725 120.88C41.6602 120.433 41.5761 119.979 41.5207 119.52C41.4632 119.067 41.3696 118.621 41.3481 118.175C41.1534 115.615 41.4239 113.042 42.1466 110.578C42.601 109.098 43.2314 107.678 44.0243 106.348C45.3668 104.043 47.1838 102.049 49.3551 100.499C50.995 99.3397 52.8158 98.4597 54.7434 97.8951L55.8729 97.6074C56.2053 97.5303 56.5415 97.4702 56.88 97.4275C57.4049 97.3303 57.9364 97.2726 58.4699 97.2549L59.4555 97.2189C59.5676 97.2038 59.6806 97.1966 59.7936 97.1973Z" fill="#4CAF4F"/>
<path d="M63.8942 113.974H62.5633L59.6857 109.931V107.276C59.6857 107.276 57.6282 107.147 57.8728 110.621C58.1174 114.096 57.8728 113.211 57.8728 113.211C57.8728 113.211 53.506 113.211 53.1463 113.607C52.7866 114.003 52.765 118.218 52.7146 120.571C52.6871 121.138 52.8498 121.698 53.177 122.162C53.5041 122.626 53.977 122.967 54.5204 123.132C54.6727 123.174 54.8299 123.196 54.988 123.197C56.0815 123.197 61.6425 122.312 61.6425 122.312H63.9374L63.8942 113.974Z" fill="#4CAF4F"/>
<path d="M67.6999 113.262L66.8798 122.355H64.6064V113.449L67.6999 113.262Z" fill="#4CAF4F"/>
<path d="M94.8143 298.387V292.236L83.7858 292.156L83.6923 301.458L84.3758 301.509C87.4188 301.703 99.8574 301.991 101.9 301.358C104.174 300.653 94.8143 298.387 94.8143 298.387Z" fill="#4CAF4F"/>
<path d="M102.159 300.782C102.159 300.883 98.0301 300.969 92.9439 300.969C87.8577 300.969 83.7283 300.883 83.7283 300.782C83.7283 300.682 87.8577 300.595 92.9439 300.595C98.0301 300.595 102.159 300.682 102.159 300.782Z" fill="#263238"/>
<path d="M95.0086 299.645C94.915 299.595 95.0086 299.271 95.2316 298.926C95.4546 298.581 95.7567 298.437 95.8287 298.509C95.9006 298.581 95.7495 298.854 95.5337 299.149C95.3179 299.444 95.1021 299.696 95.0086 299.645Z" fill="#263238"/>
<path d="M95.7136 300.048C95.6129 300.048 95.6632 299.645 95.8791 299.264C96.0949 298.883 96.3826 298.653 96.4618 298.71C96.5409 298.768 96.4114 299.091 96.21 299.43C96.0086 299.768 95.8071 300.084 95.7136 300.048Z" fill="#263238"/>
<path d="M87.0519 300.753C87.0088 300.753 86.8433 300.624 86.6059 300.351C86.3161 299.999 85.9933 299.676 85.6419 299.387C85.2963 299.111 84.8847 298.929 84.4477 298.861C84.1096 298.818 83.8937 298.861 83.8722 298.818C83.8506 298.775 84.0592 298.624 84.4549 298.595C84.9771 298.584 85.4864 298.757 85.8937 299.084C86.2752 299.395 86.597 299.773 86.8433 300.199C87.0088 300.516 87.0951 300.725 87.0519 300.753Z" fill="#263238"/>
<path d="M95.0445 298.487C95.0949 298.574 94.9078 298.789 94.5913 298.905C94.2748 299.02 93.9942 298.977 93.9798 298.905C93.9654 298.833 94.1884 298.682 94.4618 298.581C94.7352 298.48 94.987 298.401 95.0445 298.487Z" fill="#263238"/>
<path d="M94.8719 297.89C94.8719 297.998 94.5841 298.084 94.21 298.092C93.8359 298.099 93.541 298.013 93.5482 297.912C93.5554 297.811 93.8503 297.718 94.21 297.71C94.5697 297.703 94.8575 297.79 94.8719 297.89Z" fill="#263238"/>
<path d="M121.972 298.387V292.236L110.943 292.156L110.85 301.365L111.533 301.415C114.576 301.609 127.022 301.991 129.058 301.358C131.331 300.653 121.972 298.387 121.972 298.387Z" fill="#4CAF4F"/>
<path d="M129.317 300.797C129.317 300.897 125.195 300.984 120.101 300.984C115.008 300.984 110.893 300.897 110.893 300.797C110.893 300.696 115.015 300.61 120.101 300.61C125.188 300.61 129.317 300.696 129.317 300.797Z" fill="#263238"/>
<path d="M122.166 299.645C122.08 299.595 122.166 299.271 122.389 298.926C122.612 298.581 122.914 298.437 122.986 298.509C123.058 298.581 122.907 298.854 122.691 299.149C122.476 299.444 122.26 299.696 122.166 299.645Z" fill="#263238"/>
<path d="M122.871 300.048C122.778 300.048 122.821 299.645 123.044 299.264C123.267 298.883 123.547 298.653 123.627 298.71C123.706 298.768 123.569 299.091 123.368 299.43C123.166 299.768 122.972 300.084 122.871 300.048Z" fill="#263238"/>
<path d="M114.209 300.753C114.166 300.753 114.008 300.624 113.763 300.351C113.474 299.999 113.151 299.676 112.799 299.387C112.454 299.111 112.042 298.929 111.605 298.861C111.274 298.818 111.051 298.861 111.03 298.818C111.008 298.775 111.217 298.624 111.612 298.595C112.135 298.584 112.644 298.757 113.051 299.084C113.435 299.393 113.757 299.772 114.001 300.199C114.166 300.516 114.253 300.725 114.209 300.753Z" fill="#263238"/>
<path d="M122.202 298.487C122.253 298.574 122.065 298.789 121.749 298.905C121.432 299.02 121.152 298.977 121.137 298.905C121.123 298.833 121.346 298.682 121.619 298.581C121.893 298.48 122.145 298.401 122.202 298.487Z" fill="#263238"/>
<path d="M122.044 297.89C122.044 297.998 121.756 298.084 121.382 298.092C121.008 298.099 120.72 298.013 120.727 297.912C120.735 297.811 121.022 297.718 121.382 297.71C121.742 297.703 122.044 297.79 122.044 297.89Z" fill="#263238"/>
<path d="M162.604 115.729C162.316 115.434 161.604 115.578 161.604 115.578C161.675 115.164 161.675 114.741 161.604 114.326C161.474 113.924 160.568 114.003 160.568 114.003C160.526 113.664 160.526 113.32 160.568 112.981C160.575 112.906 160.559 112.83 160.522 112.765C160.484 112.699 160.428 112.647 160.359 112.614C159.931 112.439 159.47 112.356 159.007 112.37C158.453 111.974 160.698 108.83 161.532 107.823C162.367 106.816 162.215 106.032 161.474 106.032C160.964 106.032 158.345 109.053 157.539 110.068C156.734 111.082 154.597 113.902 154.525 111.65C154.453 109.399 153.547 107.701 152.978 107.413C152.41 107.125 151.806 107.801 152.115 108.427C152.387 109.138 152.556 109.884 152.619 110.643C152.697 111.247 152.67 111.861 152.539 112.456C152.301 113.564 151.976 114.651 151.568 115.708H151.511C151.511 115.708 135.813 130.765 134.677 131.837C133.662 132.801 113.26 130.693 109.166 130.261C107.775 130.058 106.371 129.962 104.965 129.974C103.188 130.053 102.872 130.304 101.102 130.326C96.6326 130.376 92.1736 130.768 87.7641 131.499C85.7675 131.838 83.9025 132.719 82.3725 134.046C80.8426 135.373 79.7064 137.095 79.0881 139.024C74.9659 151.901 65.628 182.382 63.9806 199.504C62.7357 201.762 61.6118 204.084 60.6137 206.461C59.4555 209.612 59.7361 209.72 60.1246 209.792C61.1749 209.986 62.3691 204.331 62.8151 205.698C63.2612 207.065 60.549 212.439 61.6497 212.597C63.0885 212.799 64.2324 206.842 64.3691 206.367C64.5057 205.893 65.2179 206.044 65.0885 206.49C64.8798 207.123 62.8583 213.835 64.2683 214.051C65.0453 214.166 65.1316 212.748 65.1316 212.748C65.1316 212.748 66.5704 206.324 67.2251 206.454C67.8798 206.583 67.1819 210.374 66.851 211.641C66.5201 212.907 66.9805 213.547 67.6567 213.238C68.1172 213.022 69.2179 209.173 69.52 207.921C69.8222 206.669 70.5775 203.202 71.5919 205.209C72.6062 207.216 74.1458 208.382 74.7789 208.41C74.9215 208.394 75.056 208.335 75.165 208.242C75.2739 208.148 75.3524 208.024 75.3903 207.886C75.4283 207.747 75.4239 207.601 75.3777 207.465C75.3315 207.329 75.2457 207.21 75.1314 207.123C74.5868 206.591 74.1195 205.986 73.7429 205.324C73.4073 204.809 73.1639 204.239 73.0235 203.641C72.7336 202.447 72.5649 201.228 72.5199 200.001L72.4048 199.281C74.0163 191.303 78.6565 167.886 85.3541 152.93L88.1023 158.584L89.2965 162.771L81.9729 180.85L113.21 180.44L108.548 162.498L114.21 143.793C120.332 143.93 136.051 144.16 138.669 142.973C141.964 141.534 159.007 120.01 159.007 120.01C160.118 119.147 161.182 118.224 162.194 117.247C162.194 117.247 163.23 116.377 162.604 115.729Z" fill="#FFBE9D"/>
<path d="M80.5989 167.491C81.5053 164.397 86.1599 149.103 86.1599 149.103C86.1599 149.103 88.4476 161.57 87.8433 163.074C87.2874 164.361 86.6307 165.602 85.8793 166.786C80.5989 174.821 81.2895 178.843 81.2895 178.843L113.195 177.872C113.267 173.411 110.627 163.038 110.08 161.383C109.533 159.728 111.353 154.311 111.353 154.311C111.353 154.311 114.951 150.649 114.821 148.765C114.753 147.071 114.543 145.387 114.195 143.729L133.619 144.448L133.008 131.283L105.109 128.492C104.138 131.233 95.3539 129.887 95.3539 129.887C85.8721 130.204 85.2822 131.945 81.3399 135.01C77.3975 138.074 70.8725 164.376 70.8725 164.376L80.5989 167.491Z" fill="#4CAF4F"/>
<path d="M99.4617 164.376C98.9088 164.474 98.3456 164.503 97.7855 164.462C96.7423 164.462 95.3107 164.39 93.7352 164.232C92.1597 164.073 90.7353 163.85 89.7209 163.649C89.1616 163.577 88.6132 163.437 88.0879 163.232C88.6503 163.232 89.2115 163.285 89.7641 163.39C90.7857 163.519 92.2029 163.699 93.7712 163.858C95.3395 164.016 96.7639 164.124 97.7927 164.196C98.3534 164.203 98.9123 164.263 99.4617 164.376Z" fill="#263238"/>
<path d="M101.649 161.663C101.096 161.934 100.511 162.135 99.9077 162.26C97.0375 163.015 94.0764 163.366 91.1094 163.304C90.4954 163.324 89.8814 163.266 89.2821 163.131C89.888 163.054 90.4988 163.023 91.1094 163.037C92.2389 163.001 93.7928 162.922 95.505 162.721C97.2172 162.519 98.7423 162.232 99.8214 162.001C100.421 161.841 101.032 161.728 101.649 161.663Z" fill="#263238"/>
<path d="M112.382 149.563C112.368 150.111 112.293 150.657 112.159 151.189C111.972 152.189 111.684 153.556 111.318 155.052C110.951 156.548 110.598 157.93 110.282 158.865C110.154 159.4 109.966 159.919 109.72 160.412C109.761 159.865 109.862 159.324 110.023 158.8C110.296 157.678 110.605 156.383 110.951 154.966C111.296 153.548 111.627 152.254 111.9 151.131C111.998 150.591 112.159 150.065 112.382 149.563Z" fill="#263238"/>
<path d="M80.937 165.656C79.2727 165.399 77.6302 165.017 76.0234 164.512C74.3817 164.128 72.7706 163.623 71.2034 163.001C72.8669 163.263 74.5091 163.645 76.117 164.145C77.7591 164.528 79.3703 165.033 80.937 165.656Z" fill="#263238"/>
<path d="M114.54 143.57C114.269 143.617 113.992 143.617 113.72 143.57C112.969 143.493 112.231 143.317 111.526 143.045C110.349 142.603 109.278 141.919 108.381 141.039C107.484 140.158 106.781 139.099 106.318 137.93C105.805 136.645 105.587 135.261 105.677 133.88C105.709 132.741 106.05 131.632 106.663 130.671C107.094 130.024 107.738 129.548 108.483 129.326C108.682 129.271 108.888 129.245 109.095 129.247C109.238 129.247 109.31 129.247 109.31 129.247C109.31 129.247 109.008 129.247 108.526 129.441C107.843 129.694 107.263 130.167 106.879 130.787C105.9 132.326 105.627 135.139 106.67 137.765C107.156 139.003 107.916 140.115 108.893 141.016C109.694 141.754 110.616 142.348 111.62 142.772C112.561 143.144 113.541 143.412 114.54 143.57Z" fill="#263238"/>
<path d="M131.31 144.189C131.13 141.983 131.072 139.769 131.137 137.556C131.081 135.346 131.148 133.134 131.339 130.93C131.519 133.134 131.576 135.346 131.511 137.556C131.572 139.769 131.504 141.984 131.31 144.189Z" fill="#263238"/>
<path d="M104.922 129.297C105.001 127.693 105.167 125.88 105.167 125.88C105.167 125.88 109.138 125.441 109.375 121.341C109.613 117.24 109.375 107.78 109.375 107.78L102.181 104.097L94.1956 110.377L95.4258 130.88L102.749 131.348C103.309 131.363 103.852 131.156 104.26 130.772C104.667 130.387 104.905 129.857 104.922 129.297Z" fill="#FFBE9D"/>
<path d="M105.634 118.096C105.634 118.096 105.634 118.175 105.569 118.269C105.516 118.337 105.447 118.39 105.368 118.425C105.289 118.461 105.202 118.476 105.116 118.47C104.656 118.47 104.21 117.938 104.052 117.319C103.976 117.019 103.976 116.705 104.052 116.406C104.066 116.275 104.113 116.149 104.189 116.041C104.264 115.933 104.365 115.846 104.483 115.787C104.58 115.747 104.689 115.747 104.785 115.787C104.857 115.822 104.915 115.881 104.951 115.952C105.001 116.075 104.951 116.154 104.951 116.147C104.951 116.139 104.951 116.075 104.879 116.003C104.841 115.951 104.786 115.915 104.724 115.902C104.661 115.889 104.596 115.899 104.541 115.931C104.452 115.984 104.379 116.059 104.328 116.148C104.276 116.237 104.248 116.338 104.246 116.441C104.185 116.709 104.185 116.987 104.246 117.254C104.39 117.816 104.778 118.269 105.123 118.312C105.191 118.321 105.26 118.316 105.325 118.298C105.391 118.279 105.452 118.247 105.505 118.204C105.591 118.146 105.62 118.089 105.634 118.096Z" fill="#EB996E"/>
<path d="M111.843 105.564C111.289 103.679 109.282 102.744 107.454 102.226C104.67 101.435 101.663 101.089 98.9437 102.089C96.2244 103.089 92.9583 104.845 92.9583 107.845C91.354 107.715 90.4331 109.118 89.8001 110.859C89.3953 111.92 89.1528 113.035 89.0807 114.168C88.8792 118.096 87.7785 123.521 85.2318 126.398C83.793 128.002 81.8003 129.11 80.9802 131.11C80.2607 132.844 80.6348 134.902 79.9658 136.657C79.3687 138.204 78.0522 139.304 77.0882 140.65C76.106 142.176 75.5281 143.927 75.4085 145.737C75.289 147.548 75.6318 149.36 76.4047 151.002C77.1832 152.602 78.2793 154.026 79.6262 155.189C80.9731 156.352 82.5426 157.228 84.2391 157.764C87.5994 158.787 91.1829 158.822 94.5625 157.865C97.099 157.258 99.4651 156.085 101.483 154.433C103.548 152.747 104.966 150.399 105.498 147.786C106.008 144.851 105.188 141.865 104.577 138.945C102.663 129.715 103.21 129.233 105.627 120.664C105.685 120.513 105.713 120.355 105.757 120.204C105.8 120.053 105.821 119.981 105.85 119.866C105.919 119.527 105.955 119.183 105.958 118.837C105.605 118.968 105.222 118.996 104.853 118.917C104.485 118.838 104.147 118.656 103.879 118.391C103.61 118.109 103.423 117.76 103.337 117.38C103.25 117 103.269 116.603 103.39 116.233C103.559 115.828 103.812 115.463 104.132 115.162C104.452 114.861 104.831 114.63 105.246 114.485C106.044 114.154 106.9 113.981 107.685 113.614C109.346 112.823 110.497 111.183 111.282 109.463C111.926 108.272 112.125 106.889 111.843 105.564Z" fill="#263238"/>
<path d="M105.922 118.291C106.074 118.515 106.2 118.757 106.296 119.01C106.512 119.463 106.8 120.103 107.116 120.844L107.174 120.981H107.023L106.303 121.046C105.807 121.046 105.39 121.139 104.9 121.132C104.858 121.123 104.818 121.102 104.786 121.073C104.753 121.045 104.728 121.008 104.713 120.967C104.692 120.901 104.692 120.831 104.713 120.765C104.73 120.668 104.752 120.572 104.778 120.478L104.908 119.967C104.973 119.626 105.074 119.293 105.21 118.974C105.196 119.321 105.146 119.666 105.059 120.003L104.958 120.513C104.922 120.686 104.857 120.952 104.958 120.931C105.318 120.931 105.828 120.852 106.303 120.823L107.023 120.758L106.929 120.916C106.62 120.197 106.361 119.521 106.21 119.053C106.077 118.814 105.98 118.557 105.922 118.291Z" fill="#4CAF4F"/>
<path d="M81.2895 178.843L113.195 177.872L127.08 232.072L124.526 294.243H107.656L109.72 233.395L97.3826 195.662L99.2818 296.653L82.2319 296.905L80.4406 201.979C80.3615 199.339 79.4982 193.389 79.8219 190.771L81.2895 178.843Z" fill="#263238"/>
<path d="M101.627 196.432C101.105 196.465 100.581 196.434 100.066 196.339C99.102 196.224 97.7855 196.022 96.3395 195.735C94.8935 195.447 93.5985 195.116 92.6633 194.85C92.1634 194.74 91.6797 194.566 91.2245 194.332C91.2245 194.224 93.5697 194.785 96.4474 195.368C99.325 195.95 101.641 196.325 101.627 196.432Z" fill="#455A64"/>
<path d="M124.353 290.833C124.353 290.934 120.533 291.02 115.821 291.02C111.109 291.02 107.282 290.934 107.282 290.833C107.282 290.732 111.102 290.646 115.821 290.646C120.54 290.646 124.353 290.725 124.353 290.833Z" fill="#455A64"/>
<path d="M99.1308 294.027C99.1308 294.135 95.4186 294.214 90.8432 294.214C86.2678 294.214 82.5628 294.135 82.5628 294.027C82.5628 293.919 86.275 293.84 90.8432 293.84C95.4114 293.84 99.1308 293.926 99.1308 294.027Z" fill="#455A64"/>
<path d="M96.9294 293.768C96.8287 293.768 96.3826 271.704 95.9294 244.489C95.4762 217.274 95.21 195.195 95.3035 195.195C95.397 195.195 95.8575 217.252 96.3035 244.482C96.7495 271.711 97.0373 293.768 96.9294 293.768Z" fill="#455A64"/>
<path d="M122.087 290.833C122.079 290.735 122.079 290.636 122.087 290.538V289.674C122.087 288.898 122.145 287.782 122.188 286.365C122.288 283.488 122.432 279.308 122.612 274.186C123.001 263.884 123.547 249.683 124.145 234.007C124.145 233.856 124.145 233.712 124.145 233.582V233.633C120.368 218.525 116.95 204.813 114.468 194.893L111.591 183.159C111.26 181.785 111.008 180.713 110.828 179.965C110.742 179.613 110.684 179.339 110.634 179.131C110.606 179.037 110.589 178.94 110.584 178.843C110.621 178.933 110.65 179.027 110.67 179.123C110.728 179.325 110.8 179.598 110.9 179.943C111.094 180.663 111.375 181.756 111.735 183.123C112.454 185.9 113.469 189.9 114.735 194.828C117.238 204.741 120.691 218.417 124.519 233.546V233.597C124.519 233.726 124.519 233.877 124.519 234.021C123.878 249.697 123.296 263.891 122.871 274.193C122.648 279.322 122.461 283.473 122.332 286.365C122.26 287.804 122.202 288.898 122.166 289.674C122.166 290.041 122.123 290.329 122.116 290.538C122.117 290.637 122.107 290.736 122.087 290.833Z" fill="#455A64"/>
<path d="M116.584 232.316C115.372 232.715 114.124 232.992 112.857 233.144C111.303 233.41 109.979 233.597 109.382 233.626V233.482C109.577 233.539 109.677 233.575 109.677 233.604C109.677 233.633 109.555 233.604 109.354 233.604H108.922L109.354 233.475C109.915 233.309 111.238 233.036 112.792 232.755C114.039 232.485 115.308 232.338 116.584 232.316Z" fill="#455A64"/>
<path d="M116.289 234.381C115.166 234.432 114.042 234.382 112.929 234.23C111.805 234.207 110.686 234.084 109.584 233.863C111.832 233.68 114.095 233.854 116.289 234.381Z" fill="#455A64"/>
<path opacity="0.2" d="M81.1528 179.987C81.5307 180.472 82.0066 180.872 82.5495 181.161C83.0925 181.45 83.6902 181.621 84.3038 181.663C85.5888 181.815 86.8886 181.791 88.167 181.591C96.4042 180.677 105.131 179.836 113.195 177.872C102.757 178.454 91.7281 178.26 81.2895 178.843L81.1816 179.735" fill="black"/>
<g opacity="0.2">
<path d="M91.9079 194.698L97.7927 217.532L97.3826 195.662L91.9079 194.698Z" fill="black"/>
</g>
</svg>
